<svg width="125" height="125" viewBox="0 0 125 125" fill="none" xmlns="http://www.w3.org/2000/svg">
<path d="M75.4468 63.8568C75.4468 57.1013 69.9253 51.6043 63.1389 51.6043C56.3533 51.6043 50.832 57.1014 50.832 63.8568C50.832 70.614 56.3533 76.11 63.1389 76.11C69.9253 76.11 75.4468 70.614 75.4468 63.8568ZM93.7318 0.0752563H31.2676C14.058 0.0752563 0.0568848 14.0155 0.0568848 31.1499V39.8081H45.9835C50.8296 36.3711 56.7483 34.3408 63.1389 34.3408C69.5294 34.3408 75.4489 36.3711 80.2953 39.8081H124.942V31.1499C124.942 14.0154 110.941 0.0752563 93.7318 0.0752563ZM106.372 29.6296C106.372 31.5285 104.812 33.0824 102.904 33.0824H92.1889C90.2813 33.0824 88.721 31.5285 88.721 29.6296V18.9606C88.721 17.0619 90.2811 15.5079 92.1889 15.5079H102.904C104.812 15.5079 106.372 17.0616 106.372 18.9606V29.6296V29.6296ZM92.7858 63.8568C92.7858 80.1336 79.4855 93.3734 63.1388 93.3734C46.7915 93.3734 33.4925 80.1336 33.4925 63.8568C33.4925 59.3758 34.5063 55.1261 36.309 51.317H0.0568848V93.8499C0.0568848 110.986 14.058 124.925 31.2676 124.925H93.7319C110.941 124.925 124.943 110.985 124.943 93.8499V51.317H89.9693C91.772 55.1261 92.7858 59.3758 92.7858 63.8568Z" fill="white"/>
</svg>
