<svg width="256" height="267" viewBox="0 0 256 267" fill="none" xmlns="http://www.w3.org/2000/svg">
<path d="M213.218 64.45L213.2 64.434L174.27 78.603L181.458 37.825L181.462 37.802L149.671 11.127L149.653 11.111L110.653 25.304L110.631 25.314L103.438 66.114L71.718 39.499L71.7 39.484L32.7 53.677L32.678 53.686L25.471 94.558L25.467 94.581L57.204 121.213L18.294 135.374L18.271 135.383L11.065 176.253L11.059 176.277L42.852 202.954L42.87 202.97L81.8 188.8L74.612 229.576L74.608 229.599L106.401 256.276L106.418 256.292L145.418 242.098L145.441 242.09L152.635 201.291L184.354 227.905L184.372 227.921L223.372 213.728L223.394 213.718L230.601 172.846L230.604 172.824L198.868 146.192L237.778 132.03L237.8 132.022L245.007 91.151L245.012 91.128L213.218 64.448V64.45ZM120.916 174.564L159.756 160.427L152.579 201.132L120.916 174.564V174.564ZM135.157 92.84L96.317 106.975L103.495 66.272L135.157 92.84ZM57.367 121.24L96.209 107.104L89.03 147.809L57.368 121.241L57.367 121.24ZM120.751 174.536L81.91 188.673L89.088 147.967L120.751 174.536V174.536ZM89.106 147.872L96.298 107.072L135.229 92.903L166.966 119.533L159.773 160.333L120.843 174.503L89.106 147.873V147.872ZM167.041 119.593L198.704 146.161L159.863 160.298L167.041 119.593V119.593ZM135.321 92.868L174.161 78.731L166.983 119.436L135.321 92.868ZM110.705 25.376L149.635 11.206L181.372 37.836L174.178 78.636L135.247 92.806L103.51 66.176L110.705 25.376V25.376ZM25.557 94.55L32.752 53.75L71.682 39.58L103.419 66.21L96.225 107.01L57.294 121.18L25.557 94.55V94.55ZM42.89 202.875L11.154 176.243L18.348 135.443L57.278 121.273L89.015 147.903L81.821 188.704L42.891 202.874L42.89 202.875ZM145.368 242.027L106.437 256.197L74.701 229.567L81.895 188.767L120.825 174.597L152.562 201.227L145.368 242.027ZM230.515 172.855L223.321 213.655L184.391 227.823L152.654 201.195L159.848 160.395L198.778 146.225L230.515 172.855ZM237.727 131.959L198.797 146.129L167.058 119.498L174.253 78.698L213.183 64.528L244.92 91.158L237.727 131.959V131.959Z" fill="#1A1A1A"/>
<path d="M238.177 99.233L142.855 19.251C138.385 15.501 137.803 8.83799 141.552 4.37099C145.307 -0.0990052 151.966 -0.679005 156.432 3.06799L251.754 83.053C256.224 86.803 256.806 93.465 253.057 97.933C252.066 99.116 250.827 100.067 249.428 100.719C248.029 101.37 246.504 101.707 244.961 101.705C242.565 101.705 240.157 100.895 238.177 99.233Z" fill="#649791"/>
<path d="M104.947 266.809C100.617 266.809 96.555 264.126 95.007 259.815C93.033 254.327 95.885 248.276 101.373 246.303L219.783 203.744C225.269 201.769 231.323 204.621 233.296 210.111C235.269 215.6 232.417 221.65 226.929 223.623L108.519 266.183C107.339 266.608 106.133 266.809 104.947 266.809V266.809Z" fill="#EFC519"/>
<path d="M11.12 188.04C10.515 188.04 9.90601 187.99 9.29001 187.88C3.54301 186.879 -0.301991 181.406 0.702009 175.66L22.31 51.9C23.313 46.155 28.787 42.31 34.53 43.312C40.277 44.316 44.121 49.787 43.118 55.532L21.51 179.294C20.616 184.427 16.155 188.041 11.12 188.041V188.04Z" fill="#A21C3D"/>
<path d="M64.5 90.942C63.891 90.942 63.275 90.89 62.654 90.78C56.91 89.768 53.074 84.29 54.086 78.545L61.29 37.697C62.302 31.953 67.775 28.114 73.525 29.129C79.269 30.142 83.105 35.619 82.093 41.365L74.89 82.213C73.987 87.337 69.53 90.943 64.5 90.943V90.942Z" fill="#068CBA"/>
<path d="M42.893 213.484C42.283 213.484 41.668 213.431 41.046 213.322C35.302 212.308 31.466 206.83 32.479 201.086L39.682 160.24C40.694 154.495 46.17 150.668 51.918 151.673C57.662 152.687 61.498 158.165 60.485 163.909L53.282 204.755C52.379 209.879 47.922 213.484 42.892 213.484H42.893Z" fill="#531210"/>
<path d="M142.436 62.568C140.04 62.568 137.632 61.758 135.652 60.097L103.878 33.437C99.408 29.687 98.826 23.027 102.576 18.557C106.326 14.087 112.99 13.507 117.456 17.254L149.231 43.916C153.701 47.666 154.283 54.326 150.533 58.796C149.542 59.979 148.303 60.93 146.904 61.5818C145.505 62.2336 143.979 62.5702 142.436 62.568V62.568Z" fill="#509F4E"/>
<path d="M237.758 142.553C235.362 142.553 232.954 141.741 230.974 140.081L199.199 113.42C194.729 109.67 194.147 103.008 197.896 98.54C201.651 94.07 208.31 93.49 212.776 97.237L244.55 123.9C249.02 127.65 249.602 134.312 245.853 138.78C244.862 139.964 243.624 140.915 242.225 141.567C240.826 142.219 239.301 142.556 237.757 142.554L237.758 142.553Z" fill="#106E66"/>
<path d="M191.584 197.59C187.271 197.59 183.22 194.925 181.659 190.639C179.663 185.157 182.489 179.095 187.969 177.102L226.946 162.914C232.431 160.918 238.49 163.747 240.483 169.224C242.479 174.706 239.653 180.769 234.173 182.761L195.196 196.949C194.039 197.373 192.816 197.59 191.584 197.59V197.59Z" fill="#068CBA"/>
<path d="M120.828 185.111C118.432 185.111 116.024 184.3 114.044 182.641L82.271 155.981C77.803 152.229 77.221 145.568 80.97 141.101C84.721 136.631 91.384 136.054 95.85 139.798L127.623 166.459C132.093 170.211 132.675 176.872 128.926 181.339C127.935 182.522 126.696 183.474 125.297 184.126C123.897 184.777 122.372 185.114 120.828 185.111V185.111Z" fill="#92BEAF"/>
<path d="M159.82 170.927C159.212 170.927 158.596 170.874 157.974 170.765C152.229 169.751 148.394 164.273 149.407 158.529L156.61 117.681C157.624 111.939 163.097 108.098 168.846 109.114C174.591 110.126 178.426 115.606 177.413 121.35L170.21 162.198C169.307 167.322 164.852 170.927 159.82 170.927V170.927Z" fill="#4B635B"/>
<path d="M96.263 117.606C91.949 117.606 87.898 114.942 86.337 110.654C84.343 105.173 87.167 99.112 92.649 97.118L131.628 82.931C137.104 80.939 143.17 83.762 145.163 89.244C147.159 94.725 144.332 100.786 138.85 102.78L99.874 116.967C98.7171 117.389 97.4954 117.605 96.264 117.606H96.263Z" fill="#B9BC63"/>
<path d="M74.656 240.149C70.341 240.149 66.291 237.484 64.729 233.196C62.735 227.716 65.56 221.654 71.042 219.661L110.018 205.473C115.5 203.475 121.562 206.303 123.555 211.785C125.549 217.265 122.725 223.328 117.243 225.32L78.266 239.508C77.074 239.943 75.854 240.149 74.656 240.149V240.149Z" fill="#E38B25"/>
</svg>
