<svg id="SvgjsSvg3557" xmlns="http://www.w3.org/2000/svg" viewBox="0 0 93.17 101"><defs><style>.cls-1{fill:#1a1919;}.cls-2{fill:#185798;}.cls-3{fill:#bf312b;}.cls-4{fill:#c58b31;}.cls-5{fill:#fffffe;}.cls-6{fill:#facd50;}.cls-7{fill:#fff;fill-opacity:0;stroke:#1a1919;stroke-miterlimit:50;stroke-width:0.14px;stroke-dasharray:0;}</style></defs><path id="SvgjsPath3652" class="cls-1" d="M26.3,75.9a14.93,14.93,0,0,0-.2-1.7c-.1-.5-.2-1.4-.3-1.9a5.38,5.38,0,0,1,.9,1.2l.3.6a13.92,13.92,0,0,1,.6,1.3,4.51,4.51,0,0,1,.3,1.1Zm42.5-1.7c-.1.7-.2,1.4-.2,1.7l-1.6.5c.1-.3.2-.8.3-1.1a13.92,13.92,0,0,1,.6-1.3l.3-.6a5.38,5.38,0,0,1,.9-1.2A7.47,7.47,0,0,0,68.8,74.2ZM91.9,35.4a11,11,0,0,0-4.8-3.8,8.27,8.27,0,0,0-3.3-.6,2.81,2.81,0,0,0-1.1.1,7.64,7.64,0,0,0-.9-.9,9.14,9.14,0,0,0-1.4-.7,2.64,2.64,0,0,0-.5-1.5.85.85,0,0,0-.6-.2,4.88,4.88,0,0,0-1.4.3,3.54,3.54,0,0,1-.1-.6,4.5,4.5,0,0,1-.2-.8,3.32,3.32,0,0,0,1.1-.8l.2-.2c.2-.2.3-.3.5-1.3A3.13,3.13,0,0,0,78,21.3a5.61,5.61,0,0,0-3-.8l-.6-.5a.91.91,0,0,0,.1-.8,4.06,4.06,0,0,0-1-2.3,2.58,2.58,0,0,0-2.1-.9,3.75,3.75,0,0,0-1,.1,10.54,10.54,0,0,0-3,1.4,1.93,1.93,0,0,1-.8-1.3,10.89,10.89,0,0,1,.3-3.2,5.08,5.08,0,0,0,1.8.9,3.62,3.62,0,0,0,2.8-1.7c.9-1.1,1.2-3.2,1.3-4.7a3.26,3.26,0,0,0-2-3.4c-1.5-.6-5.1-1.7-8.2-2.6A70.42,70.42,0,0,0,52.2,0H50.1c-2.7,0-6.7,0-8.7.1-3,.1-9.8,1.6-12.2,2.2a33.24,33.24,0,0,0-5.3,1.9,3.33,3.33,0,0,0-.6.3C21.9,5,22,7.3,22.1,8.2v.4a7.23,7.23,0,0,0,1,3.5,3.3,3.3,0,0,0,2.9,2h.3a2.84,2.84,0,0,0,1.5-1c.1.3.2.8.3,1.1a10.22,10.22,0,0,1,0,2.5c-.1.8-.5.9-.6.9h-.6a9.15,9.15,0,0,1-1.3-.7l-.5-.3a2.44,2.44,0,0,0-1.5-.5h-.1a3.71,3.71,0,0,0-1.9.7,3,3,0,0,0-1.4,2.5c-.1.8-.3,1.4-.3,1.7a13.7,13.7,0,0,0-1.6.2,4.5,4.5,0,0,0-2.2,1,3.63,3.63,0,0,0-.7,2.8,3,3,0,0,0,1.8,2,.76.76,0,0,0-.2.5v.6a1.69,1.69,0,0,1-.5-.2,2.11,2.11,0,0,0-1.7.3.52.52,0,0,0-.2.4,2.92,2.92,0,0,0,.2.9h-.4a12.66,12.66,0,0,0-1.2.7,7,7,0,0,0-1,.7h-.7a13.44,13.44,0,0,0-2.2.3,9,9,0,0,0-3,1.3A7.65,7.65,0,0,0,4,34.3,11.1,11.1,0,0,0,2.3,37a16.94,16.94,0,0,0-1.1,3.4A10.14,10.14,0,0,0,1,42.8v.5a11.23,11.23,0,0,0,.3,3.1,6.31,6.31,0,0,0,.8,2.2,5.9,5.9,0,0,0,.4.8,4.75,4.75,0,0,0,1.1,1.9c.1.1.2.3.4.5.5.6,1.1,1.3,1.7,1.9a14.7,14.7,0,0,0,1,1.3l.3.3a13.6,13.6,0,0,0,1.7,1.8,13.47,13.47,0,0,1,1.2,1.2c.3.3.7.6,1.3,1.1h0a22.71,22.71,0,0,1,2.6,2.8A6,6,0,0,1,15.2,65a5.3,5.3,0,0,1,.3,2.3A9.12,9.12,0,0,1,15,70a7.62,7.62,0,0,1-.7,1.3,9.38,9.38,0,0,0-1-1.4,2.79,2.79,0,0,0-2.1-1h-.1a5.29,5.29,0,0,0-2.5.7,4.34,4.34,0,0,0-2,2.5,3.16,3.16,0,0,0,.3,2.7,4.68,4.68,0,0,0,1.9,1.4,2.51,2.51,0,0,0,.5.8c.3.2.9.4,1,.5a5.86,5.86,0,0,0,1.8,1.4,16.67,16.67,0,0,0,2.4.6v.8c0,.3.1,1.7.1,1.8s0,.1-.2.3a2.69,2.69,0,0,0-.5,1.5,2.73,2.73,0,0,0,.8,1.9,7.16,7.16,0,0,0,2.4.3h.4c.7,0,2.3-.1,2.8-.1v1.4a5.36,5.36,0,0,0,.5,2.4c.2.3.6.4,1.3.4h.4c.3,0,.6-.1.9-.1a8.32,8.32,0,0,1,1.3-.2h.1a3.4,3.4,0,0,0,1,.1,1.45,1.45,0,0,0,.7-.2c.2-.2.2-.7.2-1a2.28,2.28,0,0,1,1.1.3l1.2.6a4.05,4.05,0,0,0,.3,1.2,3.23,3.23,0,0,0,1.2,1.4c.6.4,2,1.2,2.6,1.6a10,10,0,0,1,2,1.6,6.47,6.47,0,0,1,1,1.5c.4.6.8,1.2,1.1,1.6l.1.2a6.3,6.3,0,0,0,1.9,1.8,4.64,4.64,0,0,0,2.1.4H42a8.6,8.6,0,0,0,1.6-.1h.8a12.37,12.37,0,0,0,1.8-.2,6.64,6.64,0,0,1,1.3-.1h.1c.6,0,1.3.1,2.4.2h.2c.9.1,2.6.1,3.6.1h1a2.63,2.63,0,0,0,1.5-.7l.3-.2a6.07,6.07,0,0,0,1.6-1.6c.3-.5.6-.8.8-1.2s.3-.5.5-.8a13,13,0,0,1,1.7-2,8.58,8.58,0,0,1,2-1.3l.6-.3a5.37,5.37,0,0,0,1.8-1.4c.2-.3.3-.8.5-1.2,0-.2.1-.3.1-.4s.2-.3,1.3-.7a11.73,11.73,0,0,0,1.1-.5c0,.5,0,1.3.3,1.5s.5,0,.7-.2.3-.2.9-.2h.1a2.38,2.38,0,0,1,1.2.3c.1,0,.2.1.4.1A1.79,1.79,0,0,0,74,90a4,4,0,0,0,.7-1.8v-.1a17.7,17.7,0,0,0,.1-2.3h.1l3.3.4a3.73,3.73,0,0,0,2.5-.6,3.17,3.17,0,0,0,.5-2.3,1.46,1.46,0,0,0-.8-1.2c0-.2.1-.4.1-.6a1.07,1.07,0,0,0-.2-.6,1.29,1.29,0,0,0,.2-.8,5.64,5.64,0,0,1,.1-.7,14.73,14.73,0,0,0,3.1-1c.6-.3.9-.6,1-1v-.2a1.93,1.93,0,0,0,1.1-.5c.3-.2.3-.6.3-.9a2.49,2.49,0,0,0,.8-.1,2.45,2.45,0,0,0,1.4-1.3,3.65,3.65,0,0,0,0-2.9,6.37,6.37,0,0,0-2.2-2.1,4.92,4.92,0,0,0-3-.4,5.55,5.55,0,0,0-2.5,1.9c-.1-.2-.3-.5-.5-.9a4.25,4.25,0,0,1-.6-1.9,6.39,6.39,0,0,1,.6-4.2,14,14,0,0,1,2.8-3.6,11,11,0,0,1,1.6-1.5c.4-.4.9-.8,1.7-1.5a37.4,37.4,0,0,0,5.1-5.7,22.18,22.18,0,0,0,2.6-5.8,10.35,10.35,0,0,0,.1-4.3A17.18,17.18,0,0,0,91.9,35.4Z" transform="translate(-1)"/><path id="SvgjsPath3653" class="cls-2" d="M47.3,26C33.9,26,23,37.8,23,52.3S33.9,78.6,47.3,78.6,71.6,66.8,71.6,52.3,60.8,26,47.3,26" transform="translate(-1)"/><path id="SvgjsPath3654" class="cls-3" d="M73,87.6a6.28,6.28,0,0,0-.5-1.9A10.48,10.48,0,0,0,71.1,84,12.13,12.13,0,0,1,69,81a23.2,23.2,0,0,1-.9-3.9s-1.9.6-2.9,1-2.5,1.2-3.5,1.6a55.81,55.81,0,0,1-5.2,2.1,27.81,27.81,0,0,1-6.3,1.1,42.37,42.37,0,0,1-6.2,0,37.31,37.31,0,0,1-6.4-1.1,24.83,24.83,0,0,1-4.3-1.6c-1-.5-4.1-1.9-5.1-2.4a12.08,12.08,0,0,0-2.4-.8s-.3,1.8-.5,2.6a17.07,17.07,0,0,1-1.1,2.7c-.5,1.1-1.6,1.9-2.5,3a5,5,0,0,0-.7,2.5,6.39,6.39,0,0,1,1-.4,5.28,5.28,0,0,1,2.2,0c.9.2,2.4.9,4.3,1.6a42.71,42.71,0,0,0,6.2,2.2,40.5,40.5,0,0,0,8.1,1.4,72.13,72.13,0,0,0,9.3,0,51.63,51.63,0,0,0,8.4-1.7,32.16,32.16,0,0,0,5.9-2.2,16.59,16.59,0,0,1,4.1-1.4,5.84,5.84,0,0,1,2.5.3" transform="translate(-1)"/><path id="SvgjsPath3655" class="cls-3" d="M73.3,88.9c-.1-.4-.6-.6-1-.7a4.16,4.16,0,0,0-1.7-.2,3.52,3.52,0,0,0-1.6.5v1a4.2,4.2,0,0,1,.5-.2,3.62,3.62,0,0,1,1.4.1c.6.1,1.9.4,2.1.2.2,0,.4-.3.3-.7" transform="translate(-1)"/><path id="SvgjsPath3656" class="cls-3" d="M23.8,88a8.12,8.12,0,0,0-1.7.1c-.5.2-.9.4-1,.7a.69.69,0,0,0,.3.8,8.61,8.61,0,0,0,2.1-.2,3.62,3.62,0,0,1,1.4-.1,4.2,4.2,0,0,1,.5.2v-1a7.48,7.48,0,0,0-1.6-.5" transform="translate(-1)"/><path id="SvgjsPath3657" class="cls-1" d="M65.2,69,63.6,52s-1.4,0-1.8-.4-.7-2.1-.7-2.1l-.6.4a4.14,4.14,0,0,1-1.4.2,12.75,12.75,0,0,1-3.3-.7c-.2-.1-.5-.1-.7-.2,0-.1.1-.1.1-.2,1.5-3.9.6-6.1-1.5-8.1a8.36,8.36,0,0,0-7.3-1.8c-2.6.4-5.4,3.5-5.4,3.5a2.72,2.72,0,0,0-1.6,1.3,1.75,1.75,0,0,0-.4,1,1,1,0,0,0-.2,1.2c-.2.6-.7,1.5-1.4,1.6l.4.1s.8-.1,1.4-1.3a.5.5,0,0,0,.5-.1,4.23,4.23,0,0,0,2.2-2.8c1.2-1,3.6-2.7,6.4-2.5a5,5,0,0,1,4.8,3.6,4.71,4.71,0,0,1-1.3,4.2l-.3.3c-.3,0-.5.1-.7.1a4.71,4.71,0,0,0-1.5.6.78.78,0,0,0-.2-.5c-.1-.4-.4-.4-.4-.4a.78.78,0,0,0-.3-.4,3.44,3.44,0,0,0-.9-.1v-.3a1.06,1.06,0,0,0,.6,0,1,1,0,0,0,.5-1,2.9,2.9,0,0,0-.3-1.4c-.1-.4-.2-.9-.2-.9a2.83,2.83,0,0,1-.3.6c-.1.3-.7.4-1.1,1.2a1.35,1.35,0,0,0,.4,1.5v.4a1.27,1.27,0,0,0-.8.1c-.3.2-.1.3-.4.4s-.4.5-.4.5a10.27,10.27,0,0,0-1.9-.8,10.74,10.74,0,0,0-3.5.2c-1.1.2-2.4,1-3.8,1a3.88,3.88,0,0,1-2.2-.4,3.64,3.64,0,0,1-.8,2.1,2,2,0,0,1-1.8.2L30,69.1l13.6-1.6.1.1a1.48,1.48,0,0,0-.1.7c.2,1.5,2.4,2.6,3.2,3.3s1.3,1.5.8,2.2a3.29,3.29,0,0,0-.2,2.1c.2-1.1,1-1.4,1.4-2.2a2.32,2.32,0,0,0-.1-2.4,20.85,20.85,0,0,0-2.6-2.5h.1a23.53,23.53,0,0,0,4.4-.2c.6-.3.5-1.2.5-1.2L65.2,69" transform="translate(-1)"/><path id="SvgjsPath3658" class="cls-4" d="M68.3,9.8a4.19,4.19,0,0,0-.1,2.7,1.2,1.2,0,0,0,1,.7,2.67,2.67,0,0,0,2.2-1.6,6.78,6.78,0,0,0,.8-3.1,4.77,4.77,0,0,0-.6-2.9,1.61,1.61,0,0,0-2.1-.4,4.46,4.46,0,0,0-1.8,2,32.63,32.63,0,0,0-2.2,5.6,11.93,11.93,0,0,0-.4,4.9,2.9,2.9,0,0,0,1.1,1.9l.7-1.3a3.69,3.69,0,0,1-.9-2.7,17,17,0,0,1,1.2-5.2,14.41,14.41,0,0,1,1.7-3.2,1.8,1.8,0,0,1,1.6-.8c.5.2.8,1.2.7,2.1a4,4,0,0,1-.8,2.3c-.5.6-.9.6-1.2.5a1.34,1.34,0,0,1-.2-.9,4.2,4.2,0,0,1,.2-.5s-.1.6.2.7.8-.3,1-1.1,0-1.1-.5-1.2a2.17,2.17,0,0,0-1.6,1.5" transform="translate(-1)"/><path id="SvgjsPath3659" class="cls-4" d="M28.7,12.8a25.64,25.64,0,0,0-2.3-5.6,4.46,4.46,0,0,0-1.8-2,1.63,1.63,0,0,0-2.1.4A5.57,5.57,0,0,0,22,8.5a6.78,6.78,0,0,0,.8,3.1A2.67,2.67,0,0,0,25,13.2a1.45,1.45,0,0,0,1-.7,4.19,4.19,0,0,0-.1-2.7,1.63,1.63,0,0,0-1.8-1.2c-.5.1-.6.5-.5,1.2s.6,1.2,1,1.1.2-.7.2-.7.2.1.2.5a.76.76,0,0,1-.2.9c-.2.2-.7.1-1.2-.5a4.23,4.23,0,0,1-.8-2.3,2.42,2.42,0,0,1,.7-2.1c.5-.2,1.1.1,1.6.8a12.34,12.34,0,0,1,1.7,3.2A19.57,19.57,0,0,1,28,15.9a4,4,0,0,1-.9,2.7l.7,1.3A2.9,2.9,0,0,0,28.9,18a13,13,0,0,0-.2-5.2" transform="translate(-1)"/><path id="SvgjsPath3660" class="cls-4" d="M70.7,8.1s0-1-.5-1.1S69,8,69,8a2.26,2.26,0,0,1,1-.3,3.22,3.22,0,0,1,.7.4" transform="translate(-1)"/><path id="SvgjsPath3661" class="cls-4" d="M24.5,7c-.5.1-.5,1.1-.5,1.1a5.92,5.92,0,0,1,.6-.4,1.41,1.41,0,0,1,1,.3s-.7-1.1-1.1-1" transform="translate(-1)"/><path id="SvgjsPath3662" class="cls-4" d="M73,33.1l.2.3a8.56,8.56,0,0,1,1.2-2.8l.2.2c-.7.7-1.1,3.3-1.1,3.3l.2.2c.2-3,3.5-5.5,3.5-5.5.2-.2.4-.2.2-.5a.59.59,0,0,0-.6-.2,5.8,5.8,0,0,0-3.8,5" transform="translate(-1)"/><path id="SvgjsPath3663" class="cls-4" d="M73.1,28.5l1.1-1.1L73.6,26a3.57,3.57,0,0,0-.5,2.5" transform="translate(-1)"/><path id="SvgjsPath3664" class="cls-4" d="M69.8,31c-.8,1.4-.8,5.4-.8,5.5s.3.4.4.6a19.39,19.39,0,0,0,.9-5.7l-.5-.4" transform="translate(-1)"/><path id="SvgjsPath3665" class="cls-4" d="M70.8,23.6a12.52,12.52,0,0,0-.7,2.3c-.2,1-.2,1.6,0,1.7s.2-.1.2-.1.4-3.1,1.6-4.5a9.27,9.27,0,0,1,2.3-2,2.57,2.57,0,0,0-1.6.4,6.46,6.46,0,0,0-1.8,2.2" transform="translate(-1)"/><path id="SvgjsPath3666" class="cls-4" d="M62.4,22.2a6.38,6.38,0,0,0-2.6-2.1,4.31,4.31,0,0,0-2.8.3,2.42,2.42,0,0,0-1,1.9,1.77,1.77,0,0,0,.9,1.4,2.08,2.08,0,0,0,1.1.1c.4-.1.8-.4.8-.8s0-.8-.4-.9-.7,0-.8.2a1.24,1.24,0,0,1-.2.3,1.28,1.28,0,0,1,.3-1.2,1.88,1.88,0,0,1,1.9-.2,7.34,7.34,0,0,1,2.7,2.7,11,11,0,0,1,1.5,4.4,7.75,7.75,0,0,1-.1,2.2c.3.3.6.5.9.8.1-.3.2-.8.3-1.2a10,10,0,0,0-.6-4,17.72,17.72,0,0,0-1.9-3.9" transform="translate(-1)"/><path id="SvgjsPath3667" class="cls-4" d="M63.1,25.8a5.62,5.62,0,0,0-.7-1.3A7,7,0,0,0,61,23a13.27,13.27,0,0,0,.9,1.8,14.07,14.07,0,0,0,1.4,2,3.5,3.5,0,0,0-.2-1" transform="translate(-1)"/><path id="SvgjsPath3668" class="cls-4" d="M62,29.3a9.75,9.75,0,0,0-.2-2.3,7.36,7.36,0,0,0-.8-2,21,21,0,0,1,.3,2.5,4.48,4.48,0,0,1-.1,1.2,5.55,5.55,0,0,1,.8.6" transform="translate(-1)"/><path id="SvgjsPath3669" class="cls-4" d="M60.3,27.3a2.94,2.94,0,0,0,.7-2A3.17,3.17,0,0,0,60,23s0,1.2-.9,1.4A19.3,19.3,0,0,1,55,24l.1.1,5.2,3.2" transform="translate(-1)"/><path id="SvgjsPath3670" class="cls-4" d="M17.3,28.7s3.2,2.5,3.5,5.5L21,34s-.4-2.6-1.1-3.3l.2-.2a8.56,8.56,0,0,1,1.2,2.8l.2-.3a5.82,5.82,0,0,0-3.7-5,.44.44,0,0,0-.6.2c-.3.4-.1.3.1.5" transform="translate(-1)"/><path id="SvgjsPath3671" class="cls-4" d="M20.7,26,20,27.3l1.1,1.1a3.63,3.63,0,0,0-.4-2.4" transform="translate(-1)"/><path id="SvgjsPath3672" class="cls-4" d="M24,31.4a21.11,21.11,0,0,0,.8,5.6c.1-.2.3-.5.4-.7,0-.7-.1-4.1-.8-5.3l-.4.4" transform="translate(-1)"/><path id="SvgjsPath3673" class="cls-4" d="M22.3,23c1.2,1.4,1.6,4.5,1.6,4.5s.1.2.2.1.2-.7,0-1.7a12.52,12.52,0,0,0-.7-2.3,6,6,0,0,0-1.9-2.3A2.6,2.6,0,0,0,20,21a9.27,9.27,0,0,1,2.3,2" transform="translate(-1)"/><path id="SvgjsPath3674" class="cls-4" d="M24.6,19.8a3,3,0,0,0-2.8-.7c-1,.2-1.8,1.5-1.8,1.5a3.86,3.86,0,0,1,1.1.2c.6.2,1.1.5,1.9,1.7a12.37,12.37,0,0,1,1.2,3.8,11.28,11.28,0,0,0,0-2.8,14.2,14.2,0,0,0-.6-2.4,7.4,7.4,0,0,1,1,2.3c.2,1.2.5,4.8.5,4.8s.2-4.2.1-5.3a10.5,10.5,0,0,0-.7-2.3,3.17,3.17,0,0,1,1,1.9,50.82,50.82,0,0,1,.4,5.6,28.36,28.36,0,0,0,.2-4.6,5.56,5.56,0,0,0-1.5-3.7" transform="translate(-1)"/><path id="SvgjsPath3675" class="cls-4" d="M30.1,28.2a11,11,0,0,1,1.5-4.4,7.34,7.34,0,0,1,2.7-2.7,1.88,1.88,0,0,1,1.9.2,1.28,1.28,0,0,1,.3,1.2,1.44,1.44,0,0,0-.2-.3c-.1-.2-.4-.3-.8-.2s-.5.5-.5.9.4.7.8.8a1.42,1.42,0,0,0,1.1-.1,1.77,1.77,0,0,0,.9-1.4,2.58,2.58,0,0,0-1-1.9A4.31,4.31,0,0,0,34,20a6.55,6.55,0,0,0-2.6,2.1,14.21,14.21,0,0,0-1.9,3.7,10,10,0,0,0-.6,4,5.27,5.27,0,0,0,.3,1.2c.3-.3.6-.5.9-.8a13.18,13.18,0,0,1,0-2" transform="translate(-1)"/><path id="SvgjsPath3676" class="cls-4" d="M31.9,24.5c-.4.7-.4.7-.7,1.3a3.23,3.23,0,0,0-.2.9,14.07,14.07,0,0,0,1.4-2l.9-1.8a8.72,8.72,0,0,0-1.4,1.6" transform="translate(-1)"/><path id="SvgjsPath3677" class="cls-4" d="M32.2,27.1a8.58,8.58,0,0,0-.2,2.2c.3-.2.5-.4.8-.6,0-.4-.1-.8-.1-1.2A21,21,0,0,1,33,25a7.17,7.17,0,0,0-.8,2.1" transform="translate(-1)"/><path id="SvgjsPath3678" class="cls-4" d="M36,24.4c-.9-.2-.9-1.4-.9-1.4A3.54,3.54,0,0,0,34,25.3a2.94,2.94,0,0,0,.7,2L40,24l.1-.1a13.72,13.72,0,0,1-4.1.5" transform="translate(-1)"/><path id="SvgjsPath3679" class="cls-4" d="M70.4,21.1a14.2,14.2,0,0,0-.6,2.4,11.53,11.53,0,0,0,0,2.8A12.37,12.37,0,0,1,71,22.5c.8-1.2,1.3-1.5,1.9-1.7a3.86,3.86,0,0,1,1.1-.2s-.8-1.3-1.8-1.5a3,3,0,0,0-2.8.7,4.81,4.81,0,0,0-1.5,3.8,28.36,28.36,0,0,0,.2,4.6,50.82,50.82,0,0,1,.4-5.6,3.17,3.17,0,0,1,1-1.9,6.63,6.63,0,0,0-.7,2.3,40.92,40.92,0,0,0,.1,5.3s.3-3.7.5-4.8a7.25,7.25,0,0,1,1-2.4" transform="translate(-1)"/><path id="SvgjsPath3680" class="cls-4" d="M75,37.8v1.7l1.1,1V37l-1.1.8" transform="translate(-1)"/><path id="SvgjsPath3681" class="cls-4" d="M18,37v3.5l1.1-1V37.8L18,37" transform="translate(-1)"/><path id="SvgjsPath3682" class="cls-4" d="M75,34.8s-.2.5.6.6c0,0,.8-2.7,3.1-3.3a7.36,7.36,0,0,0,2.7-1s-2.1-1.3-3.2-1.1-2.9,1.9-3.2,4.8" transform="translate(-1)"/><path id="SvgjsPath3683" class="cls-4" d="M17.8,35.5c.8-.1.6-.6.6-.6-.3-2.9-2-4.6-3.2-4.8S12,31.2,12,31.2a9,9,0,0,0,2.7,1c2.3.5,3.1,3.3,3.1,3.3" transform="translate(-1)"/><path id="SvgjsPath3684" class="cls-4" d="M22.2,41.2,17,48.7a41.33,41.33,0,0,0,3.5,8.1,31.45,31.45,0,0,1-.3-4.4A30.46,30.46,0,0,1,22.4,41l-.2.2" transform="translate(-1)"/><path id="SvgjsPath3685" class="cls-4" d="M16.1,45.3l5.3-4.9-.1-.4L16,44.6l.1.7" transform="translate(-1)"/><path id="SvgjsPath3686" class="cls-4" d="M21.4,40.3l-.1-.3L16,45.2l.1.9,5.3-5.8" transform="translate(-1)"/><path id="SvgjsPath3687" class="cls-4" d="M22.4,41.2l-.1-.2L17,47.6l.2.8,5.2-7.2" transform="translate(-1)"/><path id="SvgjsPath3688" class="cls-4" d="M78.4,44.6,73.1,40l-.1.4,5.3,4.9.1-.7" transform="translate(-1)"/><path id="SvgjsPath3689" class="cls-4" d="M77.4,45.2,72.1,40l-.1.3,5.3,5.8.1-.9" transform="translate(-1)"/><path id="SvgjsPath3690" class="cls-4" d="M72,41.2l5.3,7.2.2-.8L72.2,41l-.2.2" transform="translate(-1)"/><path id="SvgjsPath3691" class="cls-4" d="M76.5,48.8l-5.2-7.5L71,41a31,31,0,0,1,2.3,11.5,34.4,34.4,0,0,1-.3,4.6,45.21,45.21,0,0,0,3.5-8.3" transform="translate(-1)"/><path id="SvgjsPath3692" class="cls-4" d="M76,77.7l3.4,3,.1-.5L76.1,77l-.1.7" transform="translate(-1)"/><path id="SvgjsPath3693" class="cls-4" d="M78.9,79.2,75.2,76l-.2.5,3.8,3.1.1-.4" transform="translate(-1)"/><path id="SvgjsPath3694" class="cls-4" d="M15,80.2l.1.5,3.4-3-.1-.7L15,80.2" transform="translate(-1)"/><path id="SvgjsPath3695" class="cls-4" d="M15,79.2l.2.4L19,76.5l-.3-.5L15,79.2" transform="translate(-1)"/><path id="SvgjsPath3696" class="cls-4" d="M30,76v1.7l.6.2s-.2-1.6-.6-1.9" transform="translate(-1)"/><path id="SvgjsPath3697" class="cls-4" d="M30,75a24.42,24.42,0,0,1,1,3.6l.6.2S30.8,75.6,30,75" transform="translate(-1)"/><path id="SvgjsPath3698" class="cls-4" d="M64,77.9l.6-.2V76c-.4.3-.6,1.9-.6,1.9" transform="translate(-1)"/><path id="SvgjsPath3699" class="cls-4" d="M63,78.8l.7-.2a26.56,26.56,0,0,1,.9-3.6c-.8.6-1.6,3.8-1.6,3.8" transform="translate(-1)"/><path id="SvgjsPath3700" class="cls-4" d="M64,75a24.88,24.88,0,0,1-14,6.2,7.93,7.93,0,0,1,.9.4,5.21,5.21,0,0,0,2.2.6,22.51,22.51,0,0,0,4.4-1.1,36.58,36.58,0,0,0,4.1-1.8c.7-.4.9-.4,1.1-.8s.3-1.1.6-1.7A17.08,17.08,0,0,1,64,75" transform="translate(-1)"/><path id="SvgjsPath3701" class="cls-4" d="M30.7,76.7a16.19,16.19,0,0,0,.6,1.7c.2.4.3.4,1.1.8A29.73,29.73,0,0,0,36.5,81a22.51,22.51,0,0,0,4.4,1.1,5.21,5.21,0,0,0,2.2-.6,7.93,7.93,0,0,1,.9-.4A26.21,26.21,0,0,1,30.1,75c.1.4.4,1.1.6,1.7" transform="translate(-1)"/><path id="SvgjsPath3702" class="cls-4" d="M46,99.6h2.3L47.1,98,46,99.6" transform="translate(-1)"/><path id="SvgjsPath3703" class="cls-4" d="M56.3,94.2a11.51,11.51,0,0,1-1.2,2.5c-.4.6-.6.9-1.2,1.1a1.69,1.69,0,0,1-1.4,0,.69.69,0,0,1-.5-.4,2,2,0,0,0,.3,1.1,1.94,1.94,0,0,0,1.5.2,4.11,4.11,0,0,0,1.7-1.1c.4-.6,1.1-1.5,1.8-2.4s1-1.4,1.4-1.9S59.9,92,59.9,92a5.91,5.91,0,0,0-2.2.5,3.33,3.33,0,0,0-1.4,1.7" transform="translate(-1)"/><path id="SvgjsPath3704" class="cls-4" d="M55.6,94.6s.6-.9.5-1.2-.5-.4-.7-.4-1.4.1-1.4.1a3,3,0,0,1,.9.6,3.91,3.91,0,0,1,.7.9" transform="translate(-1)"/><path id="SvgjsPath3705" class="cls-4" d="M39.1,93.8a5.67,5.67,0,0,1,.9-.6s-1.2-.2-1.4-.2a.62.62,0,0,0-.6.4c-.1.3.5,1.2.5,1.2a1.68,1.68,0,0,1,.6-.8" transform="translate(-1)"/><path id="SvgjsPath3706" class="cls-4" d="M41.3,97.8a2.21,2.21,0,0,1-1.4,0c-.6-.2-.8-.5-1.2-1.1a11.51,11.51,0,0,1-1.2-2.5,3.44,3.44,0,0,0-1.3-1.6A6.61,6.61,0,0,0,34,92s.8.9,1.2,1.3a13.34,13.34,0,0,1,1.4,1.9,18.61,18.61,0,0,0,1.8,2.4,3,3,0,0,0,1.7,1.1,1.94,1.94,0,0,0,1.5-.2c.4-.3.3-1.1.3-1.1a1.08,1.08,0,0,1-.6.4" transform="translate(-1)"/><path id="SvgjsPath3707" class="cls-4" d="M50.8,24.2c-1.3-.6-3-1.3-3.8-1.2a37,37,0,0,0-4,1.2,27.28,27.28,0,0,1,4.1-.3,23.08,23.08,0,0,1,3.7.3" transform="translate(-1)"/><path id="SvgjsPath3708" class="cls-4" d="M46.6,70.2A5.36,5.36,0,0,1,45.5,69c-.1-.1-.1-.2-.2-.3-.2-.4.2-1.1.2-1.1V66h0a1.73,1.73,0,0,0-.4.3,3.32,3.32,0,0,0-.9,1.3c-.1.2-.1.4-.2.6a3.4,3.4,0,0,0,.1,1,6.28,6.28,0,0,0,1.1,1.2c.4.3.8.6,1.5,1.1a2.79,2.79,0,0,1,1.1,1.1,2,2,0,0,1,.3,1.1,4,4,0,0,1-.4,1.2l.5-.5a1.91,1.91,0,0,0,.5-1,2,2,0,0,0-.4-1.6,5.27,5.27,0,0,0-1.7-1.6" transform="translate(-1)"/><path id="SvgjsPath3709" class="cls-4" d="M51.5,64.2c0-.1.1-.3.1-.4a3,3,0,0,0-.2-1.8,3.33,3.33,0,0,0-1.6-1.7,5.9,5.9,0,0,1-.8-.4.76.76,0,0,1-.4-.2,8.8,8.8,0,0,0-1.5-.5c-.5-.2-1.1-.4-1.6-.6a1.69,1.69,0,0,0-.5-.2c-.1-.1-.3-.1-.4-.2a1.27,1.27,0,0,1-.7-1.3,2.24,2.24,0,0,1,1.2-1.6h0V53h0a1.69,1.69,0,0,1-.5.2,8.78,8.78,0,0,0-2.1,1.2,3.7,3.7,0,0,0-1.4,1.8,3.38,3.38,0,0,0,.1,2.2,4.51,4.51,0,0,0,1.9,1.7,10.84,10.84,0,0,0,1.9.8c.2.1.4.1.6.2s.5.1.7.2c.8.2,1.8.3,2.4.5.1,0,.2,0,.2.1s.1.1.2.1c.5.2.7.6,1,1a.91.91,0,0,1-.1,1.2c-.1.2-.5.3-.7.4a.77.77,0,0,1-.3.1v1.5a17.48,17.48,0,0,0,1.8-1.1,1.5,1.5,0,0,0,.7-.9" transform="translate(-1)"/><path id="SvgjsPath3710" class="cls-4" d="M39.2,46.6c.2.2.5.1.9-.2a3.84,3.84,0,0,0,1.1-1.1,2.83,2.83,0,0,0,.5-1.2,6.22,6.22,0,0,1,1-.8,16.45,16.45,0,0,1,1.9-1,16,16,0,0,1,2.6-.8,9.66,9.66,0,0,1,2.4.1,5.08,5.08,0,0,1,2.2,1.1,6.22,6.22,0,0,1,1.4,1.9,4.22,4.22,0,0,1,.3,1.9,7.13,7.13,0,0,1-.5,2,3.78,3.78,0,0,1-.9,1.2,5,5,0,0,0-.8.7h0a10.42,10.42,0,0,1-1.8,1h0v2.4h0a18.5,18.5,0,0,0,2-1,9.61,9.61,0,0,0,2.2-1.6,6.47,6.47,0,0,0,.8-.9c.1-.2.2-.3.3-.5a2.19,2.19,0,0,1,.3-.5,9.76,9.76,0,0,0,.6-2.8,6,6,0,0,0-.6-2.7,12.75,12.75,0,0,0-1.6-2.1A12.29,12.29,0,0,0,51,40.3c-.8-.1-2-.3-2.5-.3a6.48,6.48,0,0,0-1.9.2,6,6,0,0,0-2,.7,10.09,10.09,0,0,0-2.1,1.5l-1.3,1.3a1,1,0,0,1-.4.1,1.3,1.3,0,0,0-.7.5,7.3,7.3,0,0,0-.9,1.3c-.3.6-.2.8,0,1" transform="translate(-1)"/><path id="SvgjsPath3711" class="cls-5" d="M29.4,85.9l1.3-4c.1-.3.2-.4.4-.3l.1-.3L30,80.8l-.1.3c.2.1.2.3.1.5l-.5,1.7-1.6-.6.5-1.7c.1-.3.3-.4.4-.4l.1-.3L27.7,80l-.1.3c.2.1.1.4.1.5l-1.3,3.9c-.1.3-.2.3-.4.4v.3l1.1.4.1-.3c-.2-.2-.1-.3-.1-.5l.6-1.8,1.6.6-.6,1.8c-.1.3-.2.3-.4.4l-.1.3,1.1.4.1-.3c0-.2-.1-.2,0-.5" transform="translate(-1)"/><path id="SvgjsPath3712" class="cls-5" d="M31.3,87l1.1-3.9c0-.2.1-.5.4-.4l.1-.3L31.6,82l-.1.3c.3.1.2.5.1.6l-1.1,3.9c0,.1-.1.5-.4.4l-.1.2,1.3.4.1-.3c-.2-.1-.1-.4-.1-.5" transform="translate(-1)"/><path id="SvgjsPath3713" class="cls-5" d="M38,83.9l-.9-.2-.1.2c.3.1.2.4.2.6l-.7,2.8h-.1l-1.2-4-1-.2-.1.3c.3,0,.3.4.2.6l-1,4a.42.42,0,0,1-.4.4l.1.1.9.2.1-.3c-.3-.1-.2-.4-.2-.5l.8-3.5h.1l1.4,4.9.3.1,1.1-4.8a.37.37,0,0,1,.4-.4l.1-.3" transform="translate(-1)"/><path id="SvgjsPath3714" class="cls-5" d="M40.5,84.4s-.1.1-.1,0-.2,0-.3-.2a1.42,1.42,0,0,0-.6-.2c-1-.2-2,.8-2.3,2.5s.2,3.1,1.4,3.3c.5.1,1-.1,1.7-.7l-.3-.3c-.5.4-.9.6-1.3.5-1.1-.2-.9-1.6-.8-2.5a3.76,3.76,0,0,1,.9-2.2.76.76,0,0,1,.5-.2,1.32,1.32,0,0,1,.9,1.2h.2l.2-1.3-.1.1h0" transform="translate(-1)"/><path id="SvgjsPath3715" class="cls-5" d="M44.8,85.4c.4,0,.9.3,1,1.2H46l.1-1.3h-.2c-.1.2-.3.1-.4,0a.91.91,0,0,0-.7-.3c-.8-.1-1.3.7-1.4,1.6a2,2,0,0,0,1.1,1.9,4.23,4.23,0,0,1,.7.5.76.76,0,0,1,.2.5c0,.2-.1.3-.1.5a1.05,1.05,0,0,1-.9.5c-.5,0-1-.6-1.1-1.2h-.2v1.4h.2c.1-.2.3-.1.4-.1a1.9,1.9,0,0,0,.9.3c1,.1,1.6-.9,1.7-1.7a1.83,1.83,0,0,0-1.4-2c-.2-.1-.7-.4-.6-.9a.59.59,0,0,1,.5-.9" transform="translate(-1)"/><path id="SvgjsPath3716" class="cls-5" d="M47,88.9h0l.7-2.3h0l.7,2.2h0ZM48.1,85h-.2a.93.93,0,0,1-.7.4v.3c.1,0,.3,0,.3.2a.9.9,0,0,1-.1.5l-1.1,3.5a.82.82,0,0,1-.4.6v.3h1v-.3c-.5-.1-.3-.6-.3-.8l.1-.5h1.7l.2.5V90c0,.2-.1.5-.3.5v.3h1.5v-.3a2,2,0,0,1-.5-1Z" transform="translate(-1)"/><path id="SvgjsPath3717" class="cls-5" d="M53.6,84.3V84l-.9.2v.3a.42.42,0,0,1,.4.4l.4,2.8h-.1L51,84.4l-1,.2v.3c.3-.1.3.2.4.4l.6,4.1c0,.1.1.4-.2.5v.3l.9-.2v-.3a.42.42,0,0,1-.4-.4l-.5-3.6h.1l3,3.9h.3l-.7-4.8a.35.35,0,0,1,.1-.5" transform="translate(-1)"/><path id="SvgjsPath3718" class="cls-5" d="M56.2,88.8l-.9-3.9c0-.2-.1-.5.1-.6V84l-1.4.3.1.3c.3,0,.4.3.4.5l.9,3.9c0,.1.1.5-.2.6l.1.3,1.4-.3-.1-.3c-.3,0-.4-.4-.4-.5" transform="translate(-1)"/><path id="SvgjsPath3719" class="cls-5" d="M59.7,88.2l-1.3-4.3.4-.1c.4-.1.8.1,1.1.7l.2-.1L59.7,83l-.2.1c-.1.1-.2.2-.3.2l-2.6.6H56l.4,1.4h.2c0-.9.4-1,.7-1.1l.3-.1,1.3,4.3a.4.4,0,0,1-.1.5l.1.3,1.4-.3-.1-.3c-.4-.1-.5-.2-.5-.4" transform="translate(-1)"/><path id="SvgjsPath3720" class="cls-5" d="M61.7,85.9V83.6h0L63,85.5h0l-1.3.4Zm0-3.9-.2.1a.6.6,0,0,1-.5.6l.1.3c.1,0,.2-.1.3.1a4.33,4.33,0,0,1,.1.5l-.1,3.6c0,.2,0,.6-.2.7l.1.3,1-.3-.1-.3c-.5,0-.5-.5-.5-.6v-.5l1.6-.5.3.4.1.2c.1.2.1.5-.2.5l.1.3,1.5-.5-.1-.3a5,5,0,0,1-.8-.8Z" transform="translate(-1)"/><path id="SvgjsPath3721" class="cls-5" d="M66.9,83.2a2,2,0,0,0-2.3-1,.93.93,0,0,1-1-.5.68.68,0,0,1,.2-1c.4-.2.9-.2,1.5.5l.2-.1L64.9,80l-.2.1c0,.3-.2.2-.4.2a1.48,1.48,0,0,0-.7.1c-.7.3-.8,1.2-.3,2a1.93,1.93,0,0,0,2,1,1.72,1.72,0,0,1,.8.1.78.78,0,0,1,.4.4c.1.1.1.3.2.5a.79.79,0,0,1-.5.8,1.66,1.66,0,0,1-1.6-.4l-.2.1.7,1.2.2-.1h0a.32.32,0,0,1,.3-.3,1.83,1.83,0,0,0,.9-.2c.8-.4.8-1.5.4-2.3" transform="translate(-1)"/><path id="SvgjsPath3722" class="cls-5" d="M47.6,50.9c.9,0,1.2-.2,1.4-.4s.2-.3,0-.4-.6.3-1.3.2a2.68,2.68,0,0,1-1.3-.3c-.2-.1-.5.2-.3.4a2.19,2.19,0,0,0,1.5.5" transform="translate(-1)"/><path id="SvgjsPath3723" class="cls-5" d="M46.2,49.4a3.78,3.78,0,0,0,1.5,0c.3-.1.1-.5-.1-.4H46.2c-.2,0-.4.3,0,.4" transform="translate(-1)"/><path id="SvgjsPath3724" class="cls-5" d="M46.2,67.7s-.1,0-.2.2a.44.44,0,0,0,.1.3,17,17,0,0,0,1.9.1,4.25,4.25,0,0,0,2.5-.6c.2-.4-.2-.6-.4-.7s-.5.4-.8.6a2.58,2.58,0,0,1-1.6.4,3.64,3.64,0,0,1-1.5-.3" transform="translate(-1)"/><path id="SvgjsPath3725" class="cls-5" d="M38.7,64.7a12,12,0,0,1,3.3-.6,9.85,9.85,0,0,1,3.1.7V61.4c-.8-.3-1.6-.6-2.5-1a3.68,3.68,0,0,1-1.3-5.3,8.09,8.09,0,0,1,3.9-2.4V50.8a6.45,6.45,0,0,0-2.7-.8,14,14,0,0,0-4.2.8,6.27,6.27,0,0,1-2.6.5,11.27,11.27,0,0,1-1.4-.2L33,65.7a15,15,0,0,0,5.7-1" transform="translate(-1)"/><path id="SvgjsPath3726" class="cls-5" d="M44.6,57.3c.1.1.2.1.3.2V55a1.38,1.38,0,0,0-.4.3,1.22,1.22,0,0,0,.1,2" transform="translate(-1)"/><path id="SvgjsPath3727" class="cls-5" d="M44.5,64.5a11,11,0,0,0-3.3-.5,19.54,19.54,0,0,0-4.1.8,20.57,20.57,0,0,1-3.2.7,6.3,6.3,0,0,1-1.6,0l-.3.9s1.3-.1,2.3-.3,4.4-1.3,6-1.5a20.74,20.74,0,0,1,2.1-.1,10.47,10.47,0,0,1,2,.5l.1-.5" transform="translate(-1)"/><path id="SvgjsPath3728" class="cls-5" d="M38,65.8a25.8,25.8,0,0,1-3.5.9,13.22,13.22,0,0,1-2.2.2l-.3.5s1.8-.2,3-.4c1.5-.3,2.7-.7,4.1-1.1a12,12,0,0,1,3.3-.5,10.93,10.93,0,0,1,2.4.4l.3-.4a9.38,9.38,0,0,0-2.7-.5,19.14,19.14,0,0,0-4.4.9" transform="translate(-1)"/><path id="SvgjsPath3729" class="cls-5" d="M43.9,66.4a4.74,4.74,0,0,0-2.6-.4c-1.5.1-4.4,1.3-7.1,1.6-.8.1-2.8.3-2.8.3l-.4.4s1.4-.1,2.4-.2c3.9-.4,4.8-1.1,7.6-1.5a2.89,2.89,0,0,1,2.4.3l.5-.5" transform="translate(-1)"/><path id="SvgjsPath3730" class="cls-5" d="M32.5,66.1,33.8,52l-.5.9L32,66.9l.5-.8" transform="translate(-1)"/><path id="SvgjsPath3731" class="cls-5" d="M31.5,67l1.3-14-.4.2L31,67.8l.5-.8" transform="translate(-1)"/><path id="SvgjsPath3732" class="cls-5" d="M32,53.1l-.5-.1L30,68.4l.6-.5L32,53.1" transform="translate(-1)"/><path id="SvgjsPath3733" class="cls-5" d="M49,62v2c.1,0,.2-.1.3-.1,1.1-.4.3-1.6-.3-1.9" transform="translate(-1)"/><path id="SvgjsPath3734" class="cls-5" d="M51.2,60.8a3.61,3.61,0,0,1,.6,3H53a27.92,27.92,0,0,1,4.4.9,11.86,11.86,0,0,0,3,.5h1.2L60.1,50.7a13.13,13.13,0,0,1-1.9.2c-.8-.1-2.1-.6-3-.8a2.22,2.22,0,0,0-.9-.1c-1.2,1.9-4.3,3.2-5.3,3.6-.1,0-.1,0-.2.1v5.7a4.91,4.91,0,0,1,2.4,1.4" transform="translate(-1)"/><path id="SvgjsPath3735" class="cls-5" d="M53.7,64.5a9,9,0,0,1,2.3.3c1.2.3,2.2.8,3.6,1.1a23,23,0,0,0,2.6.4l-.3-.9a10.87,10.87,0,0,1-1.3.1,10.25,10.25,0,0,1-2.7-.5,26.15,26.15,0,0,0-3.3-.9,12,12,0,0,0-2.5-.1l-.1.6a15.44,15.44,0,0,1,1.7-.1" transform="translate(-1)"/><path id="SvgjsPath3736" class="cls-5" d="M51,65.7l1.4-.2a19.3,19.3,0,0,1,2.3.1c1.7.2,4,1.2,6.3,1.6.8.1,2,.1,2,.1l-.3-.5H62a5.16,5.16,0,0,1-1.7-.3A55.45,55.45,0,0,0,54.1,65a13,13,0,0,0-2.5.1l-.6.6" transform="translate(-1)"/><path id="SvgjsPath3737" class="cls-5" d="M62.7,67.8h-.4a9.22,9.22,0,0,1-2.4-.3,15.34,15.34,0,0,1-2.1-.5c-.7-.2-1.7-.5-2.7-.7a14.47,14.47,0,0,0-3-.4,21.06,21.06,0,0,0-2.4.2l-.7.8,1.3-.2a22.38,22.38,0,0,1,2.6,0,14.46,14.46,0,0,1,3.3.6c1.2.3,2.7.6,3.9.8s3.2.3,3.2.3l-.6-.6" transform="translate(-1)"/><path id="SvgjsPath3738" class="cls-5" d="M62.8,67.1l-1.3-14L61,52l1.3,14.1.5,1" transform="translate(-1)"/><path id="SvgjsPath3739" class="cls-5" d="M62.8,67.8,61.4,53.3,61,53l1.3,14.3.5.5" transform="translate(-1)"/><path id="SvgjsPath3740" class="cls-5" d="M63.9,68.1,62.5,53.2,62,53l1.4,14.7.5.4" transform="translate(-1)"/><path id="SvgjsPath3741" class="cls-5" d="M47.4,51.5A2.89,2.89,0,0,1,46,51v1.6h0v3h0v3c.8.3,2,.7,3.1,1.1V51c0,.1-.6.5-1.7.5" transform="translate(-1)"/><path id="SvgjsPath3742" class="cls-5" d="M49.1,61.6c-.6-.1-1.7-.3-3.1-.6v6.3a3.08,3.08,0,0,0,1.6.4,2.19,2.19,0,0,0,1.5-.5v-1h0V64h0V61.6" transform="translate(-1)"/><path id="SvgjsPath3743" class="cls-6" d="M21.6,52.8c0-15,11.3-27.1,25.1-27.1S71.8,37.9,71.8,52.8s-11.2,27.1-25,27.1S21.6,67.8,21.6,52.8ZM46.8,25C32.5,25,21,37.5,21,52.8S32.5,80.6,46.8,80.6,72.6,68.1,72.6,52.8,61,25,46.8,25Z" transform="translate(-1)"/><path id="SvgjsPath3744" class="cls-6" d="M51.3,20.1a5,5,0,0,0-1.7.7A7,7,0,0,0,48,22.5s2.5.2,4.3.3a28.69,28.69,0,0,1,3.6.5,3.52,3.52,0,0,1-.5-1.6,2.44,2.44,0,0,1,.8-1.6H51.3" transform="translate(-1)"/><path id="SvgjsPath3745" class="cls-6" d="M17.2,27a2.89,2.89,0,0,0,1.9.2,1.46,1.46,0,0,0,.9-1.5,1.32,1.32,0,0,0-.9-1.2.73.73,0,0,0-1,.4c-.2.3.1.5.3.8s-.2.5-.5.3a1,1,0,0,1-.4-.9,1.2,1.2,0,0,1,.7-1,2.69,2.69,0,0,1,1.8.4c.7.4,1,1.1,1.6,2.1a17.33,17.33,0,0,1,.8,3.5c.2.9.8,3,.8,3s.2.2.3.1a25.16,25.16,0,0,0-.1-3.7,21.86,21.86,0,0,0-.3-3.6,5.82,5.82,0,0,0-1.2-2.5A4.2,4.2,0,0,0,19.2,22a3.77,3.77,0,0,0-2.1.6A2.84,2.84,0,0,0,16,24.9,3.12,3.12,0,0,0,17.2,27" transform="translate(-1)"/><path id="SvgjsPath3746" class="cls-6" d="M21.9,19.3a3.37,3.37,0,0,1,2.5-.1,4.22,4.22,0,0,1,2.5,2.7,11.48,11.48,0,0,1,.5,4.9,23.46,23.46,0,0,0,0,5.4,5.13,5.13,0,0,0,.4,1,5.72,5.72,0,0,1,.7-.8,2.13,2.13,0,0,1-.3-1.2,12.11,12.11,0,0,1,.2-3.1,32.42,32.42,0,0,0,.2-4.5A7.49,7.49,0,0,0,27,19.1,5.4,5.4,0,0,0,23.7,17a2.84,2.84,0,0,0-2.3,1.1A4.69,4.69,0,0,0,21,20a4.55,4.55,0,0,1,.9-.7" transform="translate(-1)"/><path id="SvgjsPath3747" class="cls-6" d="M42,22.7c1.7-.1,4.3-.3,4.3-.3a7,7,0,0,0-1.6-1.7A4.32,4.32,0,0,0,43,20c-.5-.1-5,0-5,0a2.79,2.79,0,0,1,.8,1.6,3,3,0,0,1-.5,1.6,28.5,28.5,0,0,1,3.7-.5" transform="translate(-1)"/><path id="SvgjsPath3748" class="cls-6" d="M72.6,23.4a5.82,5.82,0,0,0-1.2,2.5,21.86,21.86,0,0,0-.3,3.6c0,1-.1,3.6-.1,3.7s.3-.1.3-.1.6-2.2.8-3a17.33,17.33,0,0,1,.8-3.5,4,4,0,0,1,1.6-2.1,2.69,2.69,0,0,1,1.8-.4,1.09,1.09,0,0,1,.7,1c0,.4,0,.7-.4.9s-.7-.1-.5-.3.5-.4.3-.8a.82.82,0,0,0-1-.4,1.32,1.32,0,0,0-.9,1.2c0,.7.2,1.4.9,1.5a3.06,3.06,0,0,0,1.9-.2,3.12,3.12,0,0,0,1.2-2.1,3,3,0,0,0-1.2-2.4,3.57,3.57,0,0,0-2.1-.6,6.42,6.42,0,0,0-2.6,1.5" transform="translate(-1)"/><path id="SvgjsPath3749" class="cls-6" d="M67.6,19.1A7.49,7.49,0,0,0,66,23.6a22,22,0,0,0,.2,4.5,19.58,19.58,0,0,1,.2,3.1,2.14,2.14,0,0,1-.4,1.2,5,5,0,0,1,.7.8,2.81,2.81,0,0,0,.5-1.1,23.46,23.46,0,0,0,0-5.4,9.92,9.92,0,0,1,.5-4.9,4.78,4.78,0,0,1,2.5-2.7,3.32,3.32,0,0,1,2.5.1,4.55,4.55,0,0,1,.9.7,3.89,3.89,0,0,0-.5-1.9,2.84,2.84,0,0,0-2.3-1.1,5.28,5.28,0,0,0-3.2,2.2" transform="translate(-1)"/><path id="SvgjsPath3750" class="cls-6" d="M74.8,28.6c.5-.3.9-.5,1.2-.7s.8-.1.7-.5-.4-.6-1.1-.4a7.63,7.63,0,0,0-2.3,1.5,6.9,6.9,0,0,0-1.3,2,21.76,21.76,0,0,0-.5,2.9,17.69,17.69,0,0,1-.6,3,7.46,7.46,0,0,1-.9,1.5,5.9,5.9,0,0,1,.4.8,9.13,9.13,0,0,0,.8-1.3,21.15,21.15,0,0,0,.8-3.1,14.19,14.19,0,0,1,1.1-3.9,7.47,7.47,0,0,1,1.7-1.8" transform="translate(-1)"/><path id="SvgjsPath3751" class="cls-6" d="M23.2,38.8a5.94,5.94,0,0,1,.4-.8,3.92,3.92,0,0,1-.8-1.4,15.94,15.94,0,0,1-.6-3,21.76,21.76,0,0,0-.5-2.9,5.78,5.78,0,0,0-1.3-2,7,7,0,0,0-2.3-1.5c-.7-.2-1,.1-1.1.4s.3.3.7.5a3.07,3.07,0,0,1,1.2.7,5.44,5.44,0,0,1,1.7,1.9,11.39,11.39,0,0,1,1.1,3.9,21.15,21.15,0,0,0,.8,3.1,5.25,5.25,0,0,1,.7,1.1" transform="translate(-1)"/><path id="SvgjsPath3752" class="cls-6" d="M73,39.7l5.8,5,1-.3-5.7-5.2c.6-7.6,4.3-8.9,4.8-9.1s.6-.4.5-.8a.78.78,0,0,0-.6-.3c-5.1.3-5.8,10.7-5.8,10.7" transform="translate(-1)"/><path id="SvgjsPath3753" class="cls-6" d="M14.9,30c.5.2,4.2,1.5,4.8,9.1L14,44.3l1,.3,5.8-5S20.1,29.2,15,28.9c0,0-.4,0-.5.3s-.1.6.4.8" transform="translate(-1)"/><path id="SvgjsPath3754" class="cls-6" d="M82.6,39.6l-.1.3A3.22,3.22,0,0,1,79,38.8c-1.4-1.9.9-3.9.9-3.9l.1.4c-1.3,1.4-1.1,2.7-.3,3.6A3.87,3.87,0,0,0,82.6,39.6Zm-3.4.7a3.14,3.14,0,0,1-1.4-2.9l.2-.3a2.8,2.8,0,0,0,1.3,2.7,4.29,4.29,0,0,0,3.6.4l-.3.3A4.54,4.54,0,0,1,79.2,40.3Zm.3-7A4.39,4.39,0,0,0,77,37.4c0,1.3,1,3.5,2.9,3.9a4.67,4.67,0,0,0,3.4-.3,2.7,2.7,0,0,0,1.4-2.7,2.75,2.75,0,0,0-1.3-2,2.08,2.08,0,0,0-2-.2c-.6.2-.9,1-.7,1.9s1.7,1,1.7,1a2.31,2.31,0,0,1-1.6,0,1.8,1.8,0,0,1-1-2,2.12,2.12,0,0,1,1.8-1.7c.5-.1,2.1-.6,3.7,1.5A4.39,4.39,0,0,1,86,41a2.84,2.84,0,0,0-1.7.2A33,33,0,0,0,81,44.6l.1.5L82.2,44l.1.3-1.4,1.6.1.4,1.2-1.5.1.1-1.6,2.2.1.4,2-2.8.3.1L82,46.4h.4l.7-1.1.1.1-.5,1,.7-.1,2.1-3.1h.7c1.3-.6,1.8-4.1,1.8-4.1.4.9-.3,3.3-.3,3.3a6.52,6.52,0,0,0,1-4.1c.7,1.1,0,4.3,0,4.3a6.49,6.49,0,0,0,0-5.7,6.63,6.63,0,0,0-4.9-3.6,10,10,0,0,1,3.1,2.1l-.1.3a11.38,11.38,0,0,0-3.6-2.3A5.13,5.13,0,0,0,79.5,33.3Z" transform="translate(-1)"/><path id="SvgjsPath3755" class="cls-6" d="M15.2,38.8a3.22,3.22,0,0,1-3.5,1.1l-.1-.3a3.82,3.82,0,0,0,2.9-.7c.9-.9,1-2.2-.3-3.6l.1-.4S16.6,36.9,15.2,38.8Zm1.1-1.3a3.21,3.21,0,0,1-1.4,2.9c-1.2.7-3.1.3-3.5.3l-.3-.3a4.26,4.26,0,0,0,3.6-.4A2.8,2.8,0,0,0,16,37.3ZM7.5,35.4a10,10,0,0,1,3.1-2.1,7,7,0,0,0-4.9,3.6,6.49,6.49,0,0,0,0,5.7s-.7-3.2,0-4.3a7.41,7.41,0,0,0,1,4.1S6,40,6.4,39.1c0,0,.5,3.5,1.8,4.1h.7L11,46.3l.7.1-.5-1,.1-.1.7,1.1h.4l-1.1-1.6.3-.1,1.9,2.8.1-.4L12,44.9l.1-.1,1.2,1.5.1-.4L12,44.3l.1-.3,1.1,1.1.1-.5A33,33,0,0,0,10,41.2,2.84,2.84,0,0,0,8.3,41,4.59,4.59,0,0,1,9,36.7c1.6-2.1,3.2-1.6,3.7-1.5.7.1,1.7.9,1.7,1.7.1,1.1-.3,1.8-1,2a2.08,2.08,0,0,1-1.5,0s1.4-.1,1.6-1-.1-1.7-.7-1.9a2.06,2.06,0,0,0-2,.2,2.5,2.5,0,0,0-1.3,2,2.7,2.7,0,0,0,1.4,2.7,4.67,4.67,0,0,0,3.4.3c1.9-.4,2.9-2.6,2.9-3.9a4.49,4.49,0,0,0-2.5-4.1,4.53,4.53,0,0,0-3.5.1,11.38,11.38,0,0,0-3.6,2.3Z" transform="translate(-1)"/><path id="SvgjsPath3756" class="cls-6" d="M84,57.3c2.2-.2,2.5-1.5,2.5-1.5l.7-.5L87,55c-.6.5-.3.3-1.5.8A2.73,2.73,0,0,0,84,57.3" transform="translate(-1)"/><path id="SvgjsPath3757" class="cls-6" d="M8.7,55.8c-1.2-.5-.9-.3-1.5-.8l-.2.3.7.5s.3,1.3,2.5,1.5a2.73,2.73,0,0,0-1.5-1.5" transform="translate(-1)"/><path id="SvgjsPath3758" class="cls-6" d="M89.4,49.5V49c4.6-3.9,3.3-5,3.3-5-1.1,2.6-4.7,5-4.7,5l-.2-.2c6.5-5.5,4.6-8.7,4.6-8.7a11.67,11.67,0,0,1-3.8,7l-.1-.2c2-1.7,3.1-5.3,3.3-6.9s.4-3.3-2.6-5.9A9.53,9.53,0,0,0,82.3,32c.4.5,1.1.4,1,.5s5.6,1,6.3,4.7c.9,4.8-1.2,6.1-1.2,6.1a6,6,0,0,0-2.6.2c-.8.3-1.6,2.2-1.6,2.2a1.14,1.14,0,0,0,1.1.6c1.8.7,1.8-.5,2.3-.6s1,.3.6.7-.7.4-1.9.4-2-.6-2.7-.5-2.3.3-2.6,1.1.4.8.7.8.9.1.6.5c-.4.7-1.3.3-1.3.3-2-.6-2,.8-2,.8l2,2h1.6c-1.2,1.3,1.8.9,1.8.9l1.1-.9.4.2s-1.2.6-.9,1.1.8.8,2.8.5a2.77,2.77,0,0,0,2.4-1.8V50.2l1.1-.1c1.5-2,1.3-3.2,1.3-3.2l-3.2,2.6" transform="translate(-1)"/><path id="SvgjsPath3759" class="cls-6" d="M77.7,58l-.2-.4,2.3-.8v.5C77.9,58.7,77.7,58,77.7,58Zm4.8-4.9c-1.3-.3.3-.9-1.9-1.1,0,0-2.4.2-3.1,3.3,0,0,1.1.6,2-.9a.42.42,0,0,1,.6,0c.3.3.1.7-.3.8s-3.4.9-3.9,3.4c0,0,2.6,1.9,4.9-1.8a.42.42,0,0,1,.7-.1c.4.5,0,.7-.2.7s-.8-.1-1.3,1.5c0,0,1.3,1.2,3.1-.8a3.69,3.69,0,0,0,.8-2.1l.2-.3s.2.4.5.4a10.39,10.39,0,0,0,1.9-1.3l-.3-.3-1.2,1-.3-.2,1.2-1-.3-.3a9.27,9.27,0,0,1-3.7,1.8l-.4-.1,2.7-1.3-.3-.2-1.8.6-.1-.2,2.9-1.1-.3-.3A4.91,4.91,0,0,1,82.5,53.1Z" transform="translate(-1)"/><path id="SvgjsPath3760" class="cls-6" d="M76.8,60.3l.2.4,1-.5.1.6.9-.6.1.5a2.38,2.38,0,0,0,1-1.7,10.85,10.85,0,0,0-4.3.6,2.61,2.61,0,0,0-1.9,2.6c.7.6.8.2,1.4.1s1.1-1.1,1.1-1.1l-.3-.3-.7.6H75v-.3c.3-.6,1.8-.9,1.8-.9" transform="translate(-1)"/><path id="SvgjsPath3761" class="cls-6" d="M9.9,53.1c.3-.5-1-1.1-1-1.1l.4-.2,1.1.9s3.1.3,1.9-.9h1.6l2-2s0-1.3-2-.8c0,0-.9.4-1.2-.1s.3-.6.6-.5,1.1.1.7-.8-1.9-1-2.6-1.1-1.6.5-2.8.5-1.5-.1-1.9-.4.1-.8.6-.7.5,1.2,2.3.6a1.14,1.14,0,0,0,1.1-.6S9.9,44,9.1,43.7a6,6,0,0,0-2.6-.2s-2.1-1.4-1.2-6.1c.6-3.7,6.4-4.7,6.3-4.7s.5,0,.9-.5a9,9,0,0,0-6.9,2.1C2.6,36.8,2.8,38.5,3,40s1.3,5.2,3.3,6.9l-.1.2a12.11,12.11,0,0,1-3.8-7S.5,43.4,7,48.8l-.2.2s-3.5-2.4-4.7-4.9c0,0-1.2,1,3.4,5l-.1.5L2.3,47s-.2,1.2,1.3,3.2l1.1.1v1.6a2.77,2.77,0,0,0,2.4,1.8c2,.2,2.5-.1,2.8-.6" transform="translate(-1)"/><path id="SvgjsPath3762" class="cls-6" d="M17.1,57.6l-.2.4s-.2.7-2.1-.7v-.5ZM17,55.3c-.6-3.1-3-3.3-3-3.3-2.2.1-.6.8-1.9,1.1a6.07,6.07,0,0,1-2,.2l-.3.3,2.9,1.1-.2.2-1.8-.6-.3.2,2.7,1.3-.5.1A10.64,10.64,0,0,1,9,54l-.4.3,1.2,1-.3.2-1.2-1-.3.3a10.39,10.39,0,0,0,1.9,1.3c.3,0,.5-.4.5-.4l.2.3a2.88,2.88,0,0,0,.8,2.1c1.9,2,3.1.8,3.1.8-.5-1.5-1-1.5-1.3-1.5s-.6-.2-.2-.7.7.1.7.1c2.3,3.7,4.9,1.8,4.9,1.8-.5-2.4-3.5-3.3-3.9-3.4s-.7-.4-.3-.8a.42.42,0,0,1,.6,0C15.9,55.8,17,55.3,17,55.3Z" transform="translate(-1)"/><path id="SvgjsPath3763" class="cls-6" d="M18.6,61.6l-.7-.6-.3.3s.5,1,1.1,1.1.8.5,1.4-.1a2.55,2.55,0,0,0-1.8-2.6A10,10,0,0,0,14,59a2.38,2.38,0,0,0,1,1.7l.1-.5.9.6.1-.6,1,.5.2-.4s1.5.3,1.6.9v.3h-.3" transform="translate(-1)"/><path id="SvgjsPath3764" class="cls-6" d="M83.1,74.9a6.41,6.41,0,0,1-3.4-2.6,8.39,8.39,0,0,1-1.4-3.9,8.45,8.45,0,0,1,.2-3.9,6.65,6.65,0,0,1,.8-1.8,7.22,7.22,0,0,1,1.4-1.8s-.7,1.1-1.3,2a7,7,0,0,0-1,4c.2,3.2,1.2,5.5,2.7,6.7a4.72,4.72,0,0,0,3.1,1.3,2.61,2.61,0,0,0,2-1,5.09,5.09,0,0,0,.4-1.4,2.38,2.38,0,0,1-.4,1.8A3,3,0,0,1,83.1,74.9Zm-.1-5c-1.6.8-.8,2.5-.7,2.8s1.4,2,2.7,1.1a1.34,1.34,0,0,0,.1-1.9s-.1-.5-1.2-.5l.3-.4s.9-.5,1.4.2a2.56,2.56,0,0,1,0,2.8c-.5.4-1.9,1-3.9-.4a7.84,7.84,0,0,1-2.9-6.7c0-2.7,2.1-5.4,4.7-7.7l-.3-.2a8.93,8.93,0,0,0-5.3,10.1,11.18,11.18,0,0,0,1.6,4h-.3a16.51,16.51,0,0,1-2-4.5c-.3-1.8-.8-3.6.8-5.8l1.1-1-.3-.2-.9.8-.2-.2.5-.7-.2-.2-.4.5s-2.5,2.3-3.2,3a2,2,0,0,0,.1,2.6c.6.7,1.2-.2,1.3-.7s-.5-1.1.2-1.2.6.8.4,1.1-1.9,2.7-1.1,4.9,1.7,1.4,1.9,1.2.3-.6-.1-1.1h.5s.2,2.2,1.2,3,1.3.8,1.3.8a.66.66,0,0,0,.9-.3v-.2a6.78,6.78,0,0,0,3.9,2s1,.3.5-1.3a1.89,1.89,0,0,0,2.4-1.3,2.69,2.69,0,0,0-1-3.3C86.3,70.5,84.6,69.1,83,69.9Z" transform="translate(-1)"/><path id="SvgjsPath3765" class="cls-6" d="M8.5,72.5a2.65,2.65,0,0,0,.4,1.4,2.61,2.61,0,0,0,2,1A4.56,4.56,0,0,0,14,73.6c1.5-1.2,2.4-3.5,2.7-6.7a7.44,7.44,0,0,0-1-4A21.78,21.78,0,0,0,14.4,61a7.22,7.22,0,0,1,1.4,1.8,5.55,5.55,0,0,1,.8,1.8,8.45,8.45,0,0,1,.2,3.9,9.67,9.67,0,0,1-1.4,3.9A6.21,6.21,0,0,1,12.1,75,2.94,2.94,0,0,1,9,74.4,2.42,2.42,0,0,1,8.5,72.5Zm6.5,3s.3,0,1.3-.8,1.2-3,1.2-3H18c-.4.5-.3.9-.1,1.1s1.1,1,1.9-1.2-1-4.7-1.1-4.9-.2-1.2.4-1.1.1.7.2,1.2.7,1.4,1.3.7a2,2,0,0,0,.1-2.6c-.7-.7-3.2-3-3.2-3l-.4-.5-.2.2.5.7-.2.2-1-.8-.3.2,1.1,1c1.5,2.2,1,4,.8,5.8a13.84,13.84,0,0,1-2,4.5h-.3a11.18,11.18,0,0,0,1.6-4,8.83,8.83,0,0,0-5.3-10.1l-.3.1c2.6,2.3,4.7,5,4.7,7.7a8.11,8.11,0,0,1-2.9,6.7c-2,1.5-3.4.8-3.9.4a2.38,2.38,0,0,1,0-2.8c.5-.6,1.4-.2,1.4-.2l.3.4c-1.1,0-1.2.5-1.2.5a1.34,1.34,0,0,0,.1,1.9c1.3.9,2.6-.8,2.7-1.1s.9-2-.7-2.8-3.4.7-3.9,1a2.58,2.58,0,0,0-1,3.3,1.89,1.89,0,0,0,2.4,1.3c-.4,1.6.5,1.3.5,1.3a6.78,6.78,0,0,0,3.9-2c0,.1.1.2.1.3C14.6,75.8,15,75.5,15,75.5Z" transform="translate(-1)"/><path id="SvgjsPath3766" class="cls-6" d="M80.2,76.2a4.78,4.78,0,0,1-2.8-2.6,15.94,15.94,0,0,0-1.7-.2l-1.4-2.7-.2.5.7,1.8h-.4l-.7-1.8V67.9l-.3-.1-.3,3.7-.3-.5.4-4.8a8.11,8.11,0,0,0-1.4,5.2l-.3.2a21.39,21.39,0,0,1,1.6-7.3c1.9-4.5,1.7-4,2.3-6.3s3.2-5.5,3.4-7.6l-.6-1.2,1.3-1.3a8.45,8.45,0,0,0,.4-3.9l-1.1.3a17.61,17.61,0,0,1-1.1,5,76.79,76.79,0,0,1-3.9,9A39.5,39.5,0,0,0,70.4,72l-.2.1L70.1,71a13.45,13.45,0,0,0-.8,7.8c.9,4.2,3.8,6.4,9,6.7,0,0,1.5.2,2-.8s.1-2.3-1.1-2-1.8.3-4.7,0c-1.9-.3-2.8-1.6-3.6-3s-.6-5.2-.6-5.2.2,7.1,5.7,8h1.2s-4.6-2.4-5.4-4l.3-.8s3.1,3.9,5.9,4.6a2,2,0,0,0,1.5-.3s.5-.4-.6-.9-4.5-3.4-4.9-4.7l.1-2.6a18.22,18.22,0,0,0,6.3,5l.3-.2-4.4-3.4.2-.2,4.7,3.3H82l-2.2-1.5,3.2.9.1-.4-.8-.6c.1-.3-.9-.3-2.1-.5" transform="translate(-1)"/><path id="SvgjsPath3767" class="cls-6" d="M24,72.1l-.2-.1a40.17,40.17,0,0,0-3.4-13.7,76.79,76.79,0,0,1-3.9-9,18.29,18.29,0,0,1-1.1-5L14.3,44a8.2,8.2,0,0,0,.4,3.9l1.4,1.3-.6,1.2c.3,2,2.8,5.3,3.4,7.6a37.21,37.21,0,0,0,2.3,6.3,19.21,19.21,0,0,1,1.6,7.3l-.3-.2a8.11,8.11,0,0,0-1.4-5.2l.4,4.8-.3.4-.3-3.7-.4.1v3.3L19.9,73h-.4l.7-1.8-.2-.5-1.4,2.7a15.94,15.94,0,0,0-1.7.2,5.08,5.08,0,0,1-2.8,2.6,11.34,11.34,0,0,1-2.3.3l-.8.6.1.4,3.2-.9L12.2,78H13l4.7-3.3.2.2-4.4,3.4.3.2a19.58,19.58,0,0,0,6.3-5l.1,2.6c-.4,1.3-3.8,4.2-5,4.7s-.5.9-.5.9a1.57,1.57,0,0,0,1.5.3c2.8-.7,5.9-4.6,5.9-4.6l.3.8c-.7,1.6-5.4,4-5.4,4h1.2c5.4-.9,5.7-8,5.7-8s.3,3.8-.5,5.2a5.18,5.18,0,0,1-3.7,3c-2.8.3-3.4.3-4.7,0s-1.6,1-1.1,2,2,.8,2,.8c5.1-.3,8.1-2.4,9-6.7a13.45,13.45,0,0,0-.8-7.8L24,72.1" transform="translate(-1)"/><path id="SvgjsPath3768" class="cls-6" d="M26,71v1a9.69,9.69,0,0,1,2.6,5.3l.9.3A9.28,9.28,0,0,0,26,71" transform="translate(-1)"/><path id="SvgjsPath3769" class="cls-6" d="M65,77.6l.9-.3A9.69,9.69,0,0,1,68.5,72V71A9.75,9.75,0,0,0,65,77.6" transform="translate(-1)"/><path id="SvgjsPath3770" class="cls-6" d="M46.4,81,45,82.2h4.4L48.1,81H46.4" transform="translate(-1)"/><path id="SvgjsPath3771" class="cls-6" d="M62.6,91a8.19,8.19,0,0,0-2.7,2.2c-.6.9-1.3,1.5-1.8,2.3a19.15,19.15,0,0,1-1.6,2.1,3.29,3.29,0,0,1-2,1.2,1.89,1.89,0,0,1-1.8-.6,2.62,2.62,0,0,1-.2-1.5,2.84,2.84,0,0,1,.4-1.2,1.2,1.2,0,0,1,.8-.5c.3.1.4.2.4.4a.2.2,0,0,1-.2.2s0-.4-.3-.4a1,1,0,0,0-.7.4,1,1,0,0,0,.2,1,1.37,1.37,0,0,0,1.1.4,1,1,0,0,0,.9-.7c.1-.3.3-1.1,0-1.5a2,2,0,0,0-1.5-.8,2.7,2.7,0,0,0-2,1.2,3.57,3.57,0,0,0-.5,2.3,3.2,3.2,0,0,0,1,2,3,3,0,0,0,2.2.8,3.14,3.14,0,0,0,2.6-1.4,21.42,21.42,0,0,0,1.9-2.6,15.58,15.58,0,0,1,1.6-2,8.47,8.47,0,0,1,1.9-1.4,5.45,5.45,0,0,0,1.7-1c.5-.5.8-.6.9-1.1a2,2,0,0,0,.1-1A25,25,0,0,0,62.6,91" transform="translate(-1)"/><path id="SvgjsPath3772" class="cls-6" d="M40.6,94a2,2,0,0,0-1.5.8c-.3.4-.1,1.2,0,1.5a1.11,1.11,0,0,0,.9.7,1.37,1.37,0,0,0,1.1-.4,1,1,0,0,0,.2-1,.84.84,0,0,0-.7-.4c-.3,0-.3.4-.3.4l-.2-.2c0-.2.1-.3.4-.4s.6.2.8.5a2.84,2.84,0,0,1,.4,1.2,2.73,2.73,0,0,1-.2,1.5,2,2,0,0,1-1.8.6,3.29,3.29,0,0,1-2-1.2,8.34,8.34,0,0,1-1.6-2.1c-.6-.9-1.2-1.5-1.8-2.3A8,8,0,0,0,31.6,91c-.9-.4-2.5-1-2.5-1a5.81,5.81,0,0,0,.1,1c.2.5.4.6.9,1.1a5.45,5.45,0,0,0,1.7,1,8.47,8.47,0,0,1,1.9,1.4,10,10,0,0,1,1.6,2c.5.7,1.2,1.7,1.9,2.6a3.59,3.59,0,0,0,2.6,1.4,3,3,0,0,0,2.2-.8,3.2,3.2,0,0,0,1-2,3.57,3.57,0,0,0-.5-2.3A2.21,2.21,0,0,0,40.6,94" transform="translate(-1)"/><path id="SvgjsPath3773" class="cls-6" d="M49.7,97.4A5.13,5.13,0,0,1,50.9,95a33.38,33.38,0,0,1-4.1.4A26.26,26.26,0,0,1,43,95a12.22,12.22,0,0,1,.6,1.2,5.73,5.73,0,0,1,.4,1.4,2.39,2.39,0,0,1-.3,1.7c-.3.4-.5.9-.4,1.1s.5.1,1-.4a10.57,10.57,0,0,0,1.4-1.5,11.26,11.26,0,0,0,1.1-1.6,9.41,9.41,0,0,0,.5.8,11.85,11.85,0,0,0,2.2,2.3c.8.6.9-.1.6-.6a4,4,0,0,1-.4-2" transform="translate(-1)"/><path id="SvgjsPath3774" class="cls-6" d="M48,46a1.08,1.08,0,0,1-.4.5c-.3.3-.3.2-.5.6s.2,1.1.2,1.1l.3-.7v.8s.1.1.4,0,.4-.6.4-.9a3.18,3.18,0,0,0-.3-.9A1.34,1.34,0,0,1,48,46" transform="translate(-1)"/><path id="SvgjsPath3775" class="cls-6" d="M26,53.4V54l4.4-.4V53l-4.4.4" transform="translate(-1)"/><path id="SvgjsPath3776" class="cls-6" d="M23,51.6h7.5V51H23Z" transform="translate(-1)"/><path id="SvgjsPath3777" class="cls-6" d="M26,48.6l7,1,.1-.6-7-1-.1.6" transform="translate(-1)"/><path id="SvgjsPath3778" class="cls-6" d="M24,45.5,33.1,48l.1-.6-9-2.4-.2.5" transform="translate(-1)"/><path id="SvgjsPath3779" class="cls-6" d="M27,43.5l6.5,2.8.2-.5L27.2,43l-.2.5" transform="translate(-1)"/><path id="SvgjsPath3780" class="cls-6" d="M27,39.5l8.3,5,.3-.5-8.3-5-.3.5" transform="translate(-1)"/><path id="SvgjsPath3781" class="cls-6" d="M30,38.5l5.7,4.4.4-.5L30.3,38l-.3.5" transform="translate(-1)"/><path id="SvgjsPath3782" class="cls-6" d="M30,34.4l7,7,.4-.4-7-7-.4.4" transform="translate(-1)"/><path id="SvgjsPath3783" class="cls-6" d="M34,34.3l4.4,5.8.5-.3L34.5,34l-.5.3" transform="translate(-1)"/><path id="SvgjsPath3784" class="cls-6" d="M35,30.3l5.2,8.6.5-.3L35.5,30l-.5.3" transform="translate(-1)"/><path id="SvgjsPath3785" class="cls-6" d="M39,31.2,41.7,38l.5-.2L39.5,31l-.5.2" transform="translate(-1)"/><path id="SvgjsPath3786" class="cls-6" d="M41,28.1l2.5,9.8.5-.1L41.5,28l-.5.1" transform="translate(-1)"/><path id="SvgjsPath3787" class="cls-6" d="M44,30.1l1,7.2.6-.1-1-7.2-.6.1" transform="translate(-1)"/><path id="SvgjsPath3788" class="cls-6" d="M64,53.6l4.4.4.1-.6L64.1,53l-.1.6" transform="translate(-1)"/><path id="SvgjsPath3789" class="cls-6" d="M64,51.6h7V51H64Z" transform="translate(-1)"/><path id="SvgjsPath3790" class="cls-6" d="M68,48l-7,1,.1.6,7-1L68,48" transform="translate(-1)"/><path id="SvgjsPath3791" class="cls-6" d="M69.6,45,61,47.5l.2.5,8.5-2.5-.1-.5" transform="translate(-1)"/><path id="SvgjsPath3792" class="cls-6" d="M66.6,43,60,45.9l.2.5,6.5-2.8-.1-.6" transform="translate(-1)"/><path id="SvgjsPath3793" class="cls-6" d="M66.8,39,59,43.9l.3.5,7.8-4.9-.3-.5" transform="translate(-1)"/><path id="SvgjsPath3794" class="cls-6" d="M63.7,38,58,42.4l.3.5L64,38.5l-.3-.5" transform="translate(-1)"/><path id="SvgjsPath3795" class="cls-6" d="M63.5,34,57,41.1l.4.4,6.5-7.1-.4-.4" transform="translate(-1)"/><path id="SvgjsPath3796" class="cls-6" d="M60.4,34,56,39.8l.4.3,4.4-5.8-.4-.3" transform="translate(-1)"/><path id="SvgjsPath3797" class="cls-6" d="M59,30l-5,8.4.5.3,5-8.4L59,30" transform="translate(-1)"/><path id="SvgjsPath3798" class="cls-6" d="M54.7,31,52,37.8l.5.2,2.7-6.8-.5-.2" transform="translate(-1)"/><path id="SvgjsPath3799" class="cls-6" d="M53.6,28,51,37.8l.6.1,2.5-9.8-.5-.1" transform="translate(-1)"/><path id="SvgjsPath3800" class="cls-6" d="M49,37.2l.6.1,1-7.2L50,30l-1,7.2" transform="translate(-1)"/><path id="SvgjsPath3801" class="cls-6" d="M47,37.1h.6V27H47Z" transform="translate(-1)"/><path id="SvgjsPath3802" class="cls-6" d="M28.5,10.7c1.4,4.1,1.8,6.2,1.6,7.6a9.92,9.92,0,0,1-1.4,3.2l.5,3.7a8.74,8.74,0,0,1,1.8-3,9.46,9.46,0,0,1,3.1-2.6,9.88,9.88,0,0,1,3-.3c.6,0,3.7-.1,5.5.1a3.08,3.08,0,0,1,1.3.3,3.13,3.13,0,0,1,1,.5,5.35,5.35,0,0,1,1.3,1.3c.3.3.5.6.8.9.3-.3.6-.7.9-1a6.28,6.28,0,0,1,1.2-1.1,5.23,5.23,0,0,1,1.5-.7,12.37,12.37,0,0,1,1.8-.2,10.87,10.87,0,0,0,1.8-.1c1,0,1.9-.1,2.9-.1H58a5.52,5.52,0,0,1,3.6,1.3,9.07,9.07,0,0,1,2.2,2.6c.5.8,1.1,2.1,1.1,2.1a21,21,0,0,0,.2-2.1,15.52,15.52,0,0,1,.3-1.6,5.46,5.46,0,0,1-1.2-2.2,12.16,12.16,0,0,1,.4-6.1,38.78,38.78,0,0,1,1.9-5,22.43,22.43,0,0,1,2.3-3.5s-3.4-1.3-5.8-2a43.35,43.35,0,0,0-7.5-1.4c-2.7-.2-6.1-.3-8.1-.3a70.56,70.56,0,0,0-7.6.3,75.79,75.79,0,0,0-8.1,1.3C29.2,3.2,25,4.7,25,4.7a16.61,16.61,0,0,1,3.5,6" transform="translate(-1)"/><path id="SvgjsPath3803" class="cls-1" d="M59,13.7c0-.1,0-.1.1-.2s.1-.1.1-.2a.1.1,0,0,0,.1-.1h.4a.1.1,0,0,1,.1.1.1.1,0,0,0,.1.1.1.1,0,0,1,.1.1h.2a.37.37,0,0,0,.3-.1l.3-.3c.1-.1.1-.2.2-.2s0-.1.1-.2v-.6c0-.1-.1-.4-.2-.8s-.2-.9-.3-1.3-.2-.9-.3-1.3-.1-.7-.2-.8L60,8V7.9c0-.1-.1-.2-.2-.3s-.2-.1-.4-.2h-.3l.2-.4,2.2.4-.1.4H61l-.1.1v.4l.7,3.4a10.91,10.91,0,0,0,.6-1.1l.6-1.2c.1-.1.1-.2.2-.3l.1-.3a.31.31,0,0,0,.1-.2V8.2c-.1,0-.1-.1-.3-.1L62.8,8l.1-.4,2,.4-.1.4h-.5c-.1,0-.2.1-.3.2a.77.77,0,0,0-.2.3.52.52,0,0,0-.2.4c-.1.2-.3.5-.5.9l-.7,1.2c-.2.4-.5.8-.7,1.2s-.4.6-.5.8-.1.2-.2.3-.1.2-.2.2c-.3.3-.5.5-.7.5s-.3.1-.4.1h-.3c-.1,0-.2-.1-.3-.1s-.2-.1-.2-.2,0-.1-.1-.2c.2-.2.2-.2.2-.3" transform="translate(-1)"/><path id="SvgjsPath3804" class="cls-7" d="M59,13.7c0-.1,0-.1.1-.2s.1-.1.1-.2a.1.1,0,0,0,.1-.1h.4a.1.1,0,0,1,.1.1.1.1,0,0,0,.1.1.1.1,0,0,1,.1.1h.2a.37.37,0,0,0,.3-.1l.3-.3c.1-.1.1-.2.2-.2s0-.1.1-.2v-.6c0-.1-.1-.4-.2-.8s-.2-.9-.3-1.3-.2-.9-.3-1.3-.1-.7-.2-.8L60,8V7.9c0-.1-.1-.2-.2-.3s-.2-.1-.4-.2h-.3l.2-.4,2.2.4-.1.4H61l-.1.1v.4l.7,3.4a10.91,10.91,0,0,0,.6-1.1l.6-1.2c.1-.1.1-.2.2-.3l.1-.3a.31.31,0,0,0,.1-.2V8.2c-.1,0-.1-.1-.3-.1L62.8,8l.1-.4,2,.4-.1.4h-.5c-.1,0-.2.1-.3.2a.77.77,0,0,0-.2.3.52.52,0,0,0-.2.4c-.1.2-.3.5-.5.9l-.7,1.2c-.2.4-.5.8-.7,1.2s-.4.6-.5.8-.1.2-.2.3-.1.2-.2.2c-.3.3-.5.5-.7.5s-.3.1-.4.1h-.3c-.1,0-.2-.1-.3-.1s-.2-.1-.2-.2,0-.1-.1-.2C59,13.8,59,13.8,59,13.7Z" transform="translate(-1)"/><path id="SvgjsPath3805" class="cls-1" d="M53,10.7v-.2a3.76,3.76,0,0,1,1.2-2.6,3.4,3.4,0,0,1,2.6-.8c.2,0,.4.1.6.1s.4.1.5.2.2.1.3.1.1.1.2.1h0v2H58V9.5a2.23,2.23,0,0,0-.5-1.3,1.78,1.78,0,0,0-1-.4,1.89,1.89,0,0,0-1.8.7,4.85,4.85,0,0,0-.8,2.1,3.91,3.91,0,0,0,.4,2.5,2.09,2.09,0,0,0,1.6,1.1,2.13,2.13,0,0,0,1.2-.3,3.6,3.6,0,0,0,.8-1.2v-.1l.4.1v.1c0,.1-.1.2-.1.4s-.1.3-.2.4v.2c0,.1-.1.3-.1.4a.37.37,0,0,0-.1.3h-.2a.37.37,0,0,0-.3.1H56.1a2.76,2.76,0,0,1-2.3-1.2,3.89,3.89,0,0,1-.7-2.3,1.58,1.58,0,0,1-.1-.4" transform="translate(-1)"/><path id="SvgjsPath3806" class="cls-7" d="M53,10.7v-.2a3.76,3.76,0,0,1,1.2-2.6,3.4,3.4,0,0,1,2.6-.8c.2,0,.4.1.6.1s.4.1.5.2.2.1.3.1.1.1.2.1h0v2H58V9.5a2.23,2.23,0,0,0-.5-1.3,1.78,1.78,0,0,0-1-.4,1.89,1.89,0,0,0-1.8.7,4.85,4.85,0,0,0-.8,2.1,3.91,3.91,0,0,0,.4,2.5,2.09,2.09,0,0,0,1.6,1.1,2.13,2.13,0,0,0,1.2-.3,3.6,3.6,0,0,0,.8-1.2v-.1l.4.1v.1c0,.1-.1.2-.1.4s-.1.3-.2.4v.2c0,.1-.1.3-.1.4a.37.37,0,0,0-.1.3h-.2a.37.37,0,0,0-.3.1H56.1a2.76,2.76,0,0,1-2.3-1.2,3.89,3.89,0,0,1-.7-2.3A1.58,1.58,0,0,1,53,10.7Z" transform="translate(-1)"/><path id="SvgjsPath3807" class="cls-1" d="M44,13.7h0a3.54,3.54,0,0,0,.6-.1c.1,0,.2-.2.2-.4s.1-.4.1-.7.1-.8.1-1.3L45.1,9V8.3a1.73,1.73,0,0,0-.1-.7c-.1-.1-.2-.1-.7-.2h-.1V7h1.6l2.1,5.4L50.1,7h1.6v.4h-.1v0c-.4,0-.5.1-.6.2a1.73,1.73,0,0,0-.1.7v4.3a4.54,4.54,0,0,0,.1,1c0,.1.2.2.6.2h.1v.4H49.2v-.4h.2c.4,0,.5-.1.5-.2a4.54,4.54,0,0,0,.1-1v-4L47.8,14h-.3l-2-5.4-.1,2.7v1.9a.52.52,0,0,0,.2.4c.1.1.3.1.6.1h.1v.4H44v-.4" transform="translate(-1)"/><path id="SvgjsPath3809" class="cls-1" d="M39.1,7.3l4-.3v.1a.76.76,0,0,0,.1.4c0,.2.1.4.1.7v.5l-.3.1V8.7c-.1-.3-.1-.5-.2-.6s-.1-.3-.2-.3a.37.37,0,0,0-.3-.1H41.1c-.2,0-.3,0-.3.1v.3l.3,4.7c0,.7.1.9.2,1s.2.1.8.1h.1v.4l-2.7.2v-.4h.1q.6-.15.6-.3a2.69,2.69,0,0,0,0-1L39.9,9c0-.7-.1-1-.2-1s-.2-.2-.6-.2H39l.1-.5h0" transform="translate(-1)"/><path id="SvgjsPath3810" class="cls-7" d="M39.1,7.3l4-.3v.1a.76.76,0,0,0,.1.4c0,.2.1.4.1.7v.5l-.3.1V8.7c-.1-.3-.1-.5-.2-.6s-.1-.3-.2-.3a.37.37,0,0,0-.3-.1H41.1c-.2,0-.3,0-.3.1v.3l.3,4.7c0,.7.1.9.2,1s.2.1.8.1h.1v.4l-2.7.2v-.4h.1q.6-.15.6-.3a2.69,2.69,0,0,0,0-1L39.9,9c0-.7-.1-1-.2-1s-.2-.2-.6-.2H39l.1-.5Z" transform="translate(-1)"/><path id="SvgjsPath3811" class="cls-1" d="M32.6,7.9h0l3,5,1.2-5.7L38.4,7l.1.4h-.1c-.4.1-.5.2-.5.3a1.2,1.2,0,0,0,0,.7v.4l.7,3.8c.1.7.2.9.3,1s.2.1.5.1h.2v.4l-2.5.4L37,14h.1c.4-.1.5-.2.5-.3a6.73,6.73,0,0,0-.1-1l-.7-4-1.2,5.8h-.3l-2.8-5,.3,2.7c0,.2.1.5.1.6h0a4.33,4.33,0,0,0,.1.5.6.6,0,0,0,.1.4.37.37,0,0,0,.1.3c0,.2.1.3.2.3a1.15,1.15,0,0,0,.6,0h.1l.1.4-2.2.5-.1-.4H32c.2-.1.4-.1.5-.2s.1-.2.1-.4v-.7c0-.3-.1-.8-.1-1.3L32.2,10V9.4c-.1-.5-.2-.6-.3-.7s-.3-.1-.7-.1h-.1L31,8.2l1.6-.3" transform="translate(-1)"/><path id="SvgjsPath3812" class="cls-7" d="M32.6,7.9h0l3,5,1.2-5.7L38.4,7l.1.4h-.1c-.4.1-.5.2-.5.3a1.2,1.2,0,0,0,0,.7v.4l.7,3.8c.1.7.2.9.3,1s.2.1.5.1h.2v.4l-2.5.4L37,14h.1c.4-.1.5-.2.5-.3a6.73,6.73,0,0,0-.1-1l-.7-4-1.2,5.8h-.3l-2.8-5,.3,2.7c0,.2.1.5.1.6h0a4.33,4.33,0,0,0,.1.5.6.6,0,0,0,.1.4.37.37,0,0,0,.1.3c0,.2.1.3.2.3a1.15,1.15,0,0,0,.6,0h.1l.1.4-2.2.5-.1-.4H32c.2-.1.4-.1.5-.2s.1-.2.1-.4v-.7c0-.3-.1-.8-.1-1.3L32.2,10V9.4c-.1-.5-.2-.6-.3-.7s-.3-.1-.7-.1h-.1L31,8.2Z" transform="translate(-1)"/></svg>