<?xml version="1.0" encoding="UTF-8"?>
<svg width="32px" height="20px" viewBox="0 0 32 20" version="1.1" xmlns="http://www.w3.org/2000/svg" xmlns:xlink="http://www.w3.org/1999/xlink">
    <!-- Generator: Sketch 50.2 (55047) - http://www.bohemiancoding.com/sketch -->
    <title>GROUP</title>
    <desc>Created with Sketch.</desc>
    <defs></defs>
    <g id="EFRH" stroke="none" stroke-width="1" fill="none" fill-rule="evenodd">
        <g id="HOME-EFRH-2" transform="translate(-1222.000000, -106.000000)" fill="#FFFFFF">
            <g id="GROUP" transform="translate(1211.000000, 89.000000)">
                <path d="M16,37 L19.7368036,37 C19.7368036,37 30.2011289,18.9884754 37.768475,20.0586446 C37.768475,20.0586446 41.4121773,19.5232505 43,26.6566808 C43,26.6566808 42.9649276,24.126402 42.0657991,22.0201059 C42.010321,21.8895068 38.7957771,13.7273771 29.3600293,21.0390658 C19.9236437,28.3507545 16,37 16,37" id="Fill-1"></path>
                <path d="M11,32 L15.0140409,32 C15.0140409,32 26.2524756,17.7803582 34.3804685,18.6254089 C34.3804685,18.6254089 38.2939698,18.2025542 40,23.8340303 C40,23.8340303 39.9622977,21.8369969 38.9964898,20.1739002 C38.9361661,20.0704918 35.4845182,13.6268975 25.3495049,19.3993252 C15.2144916,25.1717529 11,32 11,32" id="Fill-3"></path>
            </g>
        </g>
    </g>
</svg>