<svg width="16" height="16" viewBox="0 0 16 16" fill="none" xmlns="http://www.w3.org/2000/svg">
<g clip-path="url(#clip0)">
<path d="M10.455 0H5.54352C1.06152 0 -0.000976562 1.0625 -0.000976562 5.5445V10.456C-0.000976562 14.938 1.06152 16.0005 5.54352 16.0005H10.455C14.937 16.0005 15.9995 14.938 15.9995 10.456V5.5445C15.9995 1.0625 14.9265 0 10.455 0ZM12.916 11.414H11.7545C11.3145 11.414 11.179 11.065 10.3875 10.263C9.70002 9.5965 9.39552 9.508 9.22602 9.508C8.98652 9.508 8.91852 9.5755 8.91852 9.904V10.9535C8.91852 11.235 8.83002 11.404 8.08502 11.404C6.85302 11.404 5.48602 10.659 4.52752 9.271C3.08202 7.237 2.68652 5.7135 2.68652 5.3985C2.68652 5.229 2.75402 5.0705 3.07952 5.0705H4.24352C4.53802 5.0705 4.65002 5.206 4.76452 5.521C5.34002 7.1825 6.29852 8.638 6.69402 8.638C6.84002 8.638 6.90752 8.5705 6.90752 8.198V6.482C6.86302 5.6905 6.44652 5.6225 6.44652 5.3415C6.44652 5.206 6.55852 5.0705 6.73802 5.0705H8.56852C8.81602 5.0705 8.90702 5.206 8.90702 5.4975V7.8125C8.90702 8.0625 9.01902 8.151 9.08652 8.151C9.23252 8.151 9.35752 8.0625 9.62802 7.7915C10.464 6.854 11.063 5.4085 11.063 5.4085C11.141 5.239 11.2765 5.0805 11.571 5.0805H12.735C13.084 5.0805 13.162 5.26 13.084 5.51C12.938 6.187 11.5135 8.1975 11.5135 8.1975C11.391 8.4005 11.344 8.489 11.5135 8.7155C11.6385 8.885 12.045 9.2365 12.3155 9.5515C12.813 10.1165 13.1955 10.5905 13.2975 10.9185C13.412 11.244 13.243 11.4135 12.9145 11.4135L12.916 11.414Z" fill="white"/>
</g>
<defs>
<clipPath id="clip0">
<rect width="16" height="16" fill="white"/>
</clipPath>
</defs>
</svg>
